<?xml version="1.0" standalone="no"?>
<!DOCTYPE svg PUBLIC "-//W3C//DTD SVG 1.1//EN" "http://www.w3.org/Graphics/SVG/1.1/DTD/svg11.dtd" >
<svg>
<metadata>
Created by FontForge 20090622 at Mon Jun 27 03:38:11 2016
 By deploy user
(C)2007 House Industries/Brand Design Co., Inc. All Rights Reserved.
</metadata>
<defs>
<font id="Neutraface2Condensed-Bold" horiz-adv-x="330" >
  <font-face 
    font-family="Neutraface 2 Condensed Bold"
    font-weight="700"
    font-stretch="condensed"
    units-per-em="1000"
    panose-1="2 11 8 6 4 0 0 2 0 4"
    ascent="785"
    descent="-215"
    x-height="355"
    cap-height="680"
    bbox="-46 -223 913 899"
    underline-thickness="50"
    underline-position="-50"
    unicode-range="U+0020-U+FB04"
  />
<missing-glyph horiz-adv-x="500" 
 />
    <glyph glyph-name="ff" unicode="ff" horiz-adv-x="401" 
d="M13 276v79h34v234q0 65 30 97t83 32q42 0 62 -17l-30 -71q-8 5 -20 5q-28 0 -28 -45v-235h77v234q0 65 30 97t83 32q45 0 71 -20l-33 -72q-11 9 -26 9q-28 0 -28 -45v-235h69v-79h-69v-276h-97v276h-77v-276h-97v276h-34z" />
    <glyph glyph-name="fi" unicode="fi" horiz-adv-x="348" 
d="M221 0v276h-77v-276h-97v276h-34v79h34v234q0 65 30 97t83 32q45 0 71 -20l-33 -72q-11 9 -26 9q-28 0 -28 -45v-235h174v-355h-97zM269 422q-22 0 -39 16.5t-17 39.5q0 24 17 40t39 16q24 0 40 -16t16 -40t-16.5 -40t-39.5 -16z" />
    <glyph glyph-name="fl" unicode="fl" horiz-adv-x="348" 
d="M13 276v79h34v234q0 65 29.5 97t81.5 32q30 0 46 -8l-14 -79q-8 2 -17 2q-12 0 -20.5 -10.5t-8.5 -32.5v-235h50v-79h-50v-276h-97v276h-34zM221 0v701h97v-701h-97z" />
    <glyph glyph-name="ffi" unicode="ffi" horiz-adv-x="522" 
d="M395 0v276h-77v-276h-97v276h-77v-276h-97v276h-34v79h34v234q0 65 30 97t83 32q42 0 62 -17l-30 -71q-8 5 -20 5q-28 0 -28 -45v-235h77v234q0 65 30 97t83 32q45 0 71 -20l-33 -72q-11 9 -26 9q-28 0 -28 -45v-235h174v-355h-97zM443 422q-22 0 -39 16.5t-17 39.5
q0 24 17 40t39 16q24 0 40 -16t16 -40t-16.5 -40t-39.5 -16z" />
    <glyph glyph-name="ffl" unicode="ffl" horiz-adv-x="522" 
d="M13 276v79h34v234q0 65 30 97t83 32q42 0 62 -17l-30 -71q-8 5 -20 5q-28 0 -28 -45v-235h77v234q0 65 29.5 97t81.5 32q30 0 46 -8l-14 -79q-8 2 -17 2q-12 0 -20.5 -10.5t-8.5 -32.5v-235h50v-79h-50v-276h-97v276h-77v-276h-97v276h-34zM395 0v701h97v-701h-97z" />
    <glyph glyph-name="f_b" unicode="fb" horiz-adv-x="545" 
d="M401 -9q-55 0 -83 45v-36h-97v701h97v-381q25 44 84 44q53 0 89 -46t36 -135v-11q0 -89 -36.5 -135t-89.5 -46zM13 276v79h34v234q0 65 29.5 97t81.5 32q30 0 46 -8l-14 -79q-8 2 -17 2q-12 0 -20.5 -10.5t-8.5 -32.5v-235h50v-79h-50v-276h-97v276h-34zM371 75
q56 0 56 98v9q0 98 -56 98q-26 0 -40.5 -25.5t-14.5 -72.5v-9q0 -47 14.5 -72.5t40.5 -25.5z" />
    <glyph glyph-name="f_f_b" unicode="ffb" horiz-adv-x="719" 
d="M13 276v79h34v234q0 65 30 97t83 32q42 0 62 -17l-30 -71q-8 5 -20 5q-28 0 -28 -45v-235h77v234q0 65 29.5 97t81.5 32q30 0 46 -8l-14 -79q-8 2 -17 2q-12 0 -20.5 -10.5t-8.5 -32.5v-235h50v-79h-50v-276h-97v276h-77v-276h-97v276h-34zM575 -9q-55 0 -83 45v-36h-97
v701h97v-381q25 44 84 44q53 0 89 -46t36 -135v-11q0 -89 -36.5 -135t-89.5 -46zM545 75q56 0 56 98v9q0 98 -56 98q-26 0 -40.5 -25.5t-14.5 -72.5v-9q0 -47 14.5 -72.5t40.5 -25.5z" />
    <glyph glyph-name="f_f_f" unicode="fff" horiz-adv-x="575" 
d="M221 0v276h-77v-276h-97v276h-34v79h34v234q0 65 30 97t83 32q42 0 62 -17l-30 -71q-8 5 -20 5q-28 0 -28 -45v-235h77v234q0 65 30 97t83 32q42 0 62 -17l-30 -71q-8 5 -20 5q-28 0 -28 -45v-235h77v234q0 65 30 97t83 32q45 0 71 -20l-33 -72q-11 9 -26 9
q-28 0 -28 -45v-235h69v-79h-69v-276h-97v276h-77v-276h-97z" />
    <glyph glyph-name="f_f_h" unicode="ffh" horiz-adv-x="703" 
d="M13 276v79h34v234q0 65 30 97t83 32q42 0 62 -17l-30 -71q-8 5 -20 5q-28 0 -28 -45v-235h77v234q0 65 29.5 97t81.5 32q30 0 46 -8l-14 -79q-8 2 -17 2q-12 0 -20.5 -10.5t-8.5 -32.5v-235h50v-79h-50v-276h-97v276h-77v-276h-97v276h-34zM395 0v701h97v-386
q29 49 87 49q44 0 71 -32t27 -91v-241h-97v230q0 21 -11 32.5t-29 11.5q-48 0 -48 -51v-223h-97z" />
    <glyph glyph-name="f_f_j" unicode="ffj" horiz-adv-x="522" 
d="M13 276v79h34v234q0 65 30 97t83 32q42 0 62 -17l-30 -71q-8 5 -20 5q-28 0 -28 -45v-235h77v234q0 65 30 97t83 32q45 0 71 -20l-33 -72q-11 9 -26 9q-28 0 -28 -45v-235h174v-451q0 -56 -28.5 -87t-81.5 -31q-38 0 -62 13l24 79q10 -6 23 -6q28 0 28 34v370h-77v-276
h-97v276h-77v-276h-97v276h-34zM443 422q-22 0 -39 16.5t-17 39.5q0 24 17 40t39 16q24 0 40 -16t16 -40t-16.5 -40t-39.5 -16z" />
    <glyph glyph-name="f_f_k" unicode="ffk" horiz-adv-x="687" 
d="M13 276v79h34v234q0 65 30 97t83 32q42 0 62 -17l-30 -71q-8 5 -20 5q-28 0 -28 -45v-235h77v234q0 65 29.5 97t81.5 32q30 0 46 -8l-14 -79q-8 2 -17 2q-12 0 -20.5 -10.5t-8.5 -32.5v-235h50v-79h-50v-276h-97v276h-77v-276h-97v276h-34zM580 0l-65 129l-23 -31v-98
h-97v701h97v-475l89 129h105l-102 -144l103 -211h-107z" />
    <glyph glyph-name="f_h" unicode="fh" horiz-adv-x="529" 
d="M221 0v701h97v-386q29 49 87 49q44 0 71 -32t27 -91v-241h-97v230q0 21 -11 32.5t-29 11.5q-48 0 -48 -51v-223h-97zM13 276v79h34v234q0 65 29.5 97t81.5 32q30 0 46 -8l-14 -79q-8 2 -17 2q-12 0 -20.5 -10.5t-8.5 -32.5v-235h50v-79h-50v-276h-97v276h-34z" />
    <glyph glyph-name="f_j" unicode="fj" horiz-adv-x="348" 
d="M13 276v79h34v234q0 65 30 97t83 32q45 0 71 -20l-33 -72q-11 9 -26 9q-28 0 -28 -45v-235h174v-450q0 -56 -28.5 -87t-81.5 -31q-38 0 -62 13l24 79q10 -6 23 -6q28 0 28 34v369h-77v-276h-97v276h-34zM269 422q-22 0 -39 16.5t-17 39.5q0 24 17 40t39 16q24 0 40 -16
t16 -40t-16.5 -40t-39.5 -16z" />
    <glyph glyph-name="f_k" unicode="fk" horiz-adv-x="513" 
d="M13 276v79h34v234q0 65 29.5 97t81.5 32q30 0 46 -8l-14 -79q-8 2 -17 2q-12 0 -20.5 -10.5t-8.5 -32.5v-235h50v-79h-50v-276h-97v276h-34zM406 0l-65 129l-23 -31v-98h-97v701h97v-475l89 129h105l-102 -144l103 -211h-107z" />
    <glyph glyph-name=".notdef" horiz-adv-x="500" 
 />
    <glyph glyph-name=".null" horiz-adv-x="0" 
 />
    <glyph glyph-name="nonmarkingreturn" horiz-adv-x="333" 
 />
    <glyph glyph-name="space" unicode=" " horiz-adv-x="182" 
 />
    <glyph glyph-name="exclam" unicode="!" horiz-adv-x="217" 
d="M64 200l-10 480h108l-10 -480h-88zM109 -5q-27 0 -46.5 18.5t-19.5 46.5t19.5 46.5t46.5 18.5t46 -18.5t19 -46.5t-19 -46.5t-46 -18.5z" />
    <glyph glyph-name="quotedbl" unicode="&#x22;" horiz-adv-x="307" 
d="M183 478l-9 202h102l-9 -202h-84zM40 478l-9 202h102l-9 -202h-84z" />
    <glyph glyph-name="numbersign" unicode="#" horiz-adv-x="413" 
d="M52 381v78h65l19 102h78l-19 -102h61l19 102h78l-19 -102h55v-78h-69l-12 -67h53v-78h-68l-17 -96h-78l17 96h-61l-17 -96h-78l17 96h-52v78h67l12 67h-51zM181 381l-12 -67h61l12 67h-61z" />
    <glyph glyph-name="dollar" unicode="$" horiz-adv-x="352" 
d="M124 -106v102q-71 8 -117 58l58 69q42 -42 90 -42q34 0 53.5 17.5t19.5 45.5v6q0 23 -13.5 41t-52.5 49l-41 33q-46 37 -67.5 70t-21.5 81v6q0 46 24.5 80.5t67.5 48.5v93h93v-86q47 -7 89 -37l-48 -73q-35 26 -74 26q-24 0 -40 -14t-16 -36v-4q0 -23 14 -40t49 -45
l42 -33q49 -38 71.5 -73.5t22.5 -82.5v-9q0 -52 -29 -90.5t-81 -53.5v-107h-93z" />
    <glyph glyph-name="percent" unicode="%" horiz-adv-x="585" 
d="M104 0l289 561h89l-289 -561h-89zM147 312q-53 0 -90 36.5t-37 90.5v3q0 54 37 90.5t90 36.5t90 -36.5t37 -90.5v-3q0 -54 -37 -90.5t-90 -36.5zM147 385q20 0 32 14.5t12 39.5v3q0 24 -12 38.5t-32 14.5t-32.5 -14.5t-12.5 -38.5v-3q0 -25 12.5 -39.5t32.5 -14.5z
M439 -8q-53 0 -90 36.5t-37 90.5v4q0 54 37 90.5t90 36.5t89.5 -37t36.5 -90v-4q0 -53 -36.5 -90t-89.5 -37zM439 66q20 0 32 14.5t12 39.5v2q0 25 -12 39.5t-32 14.5t-32.5 -14.5t-12.5 -39.5v-2q0 -25 12.5 -39.5t32.5 -14.5z" />
    <glyph glyph-name="ampersand" unicode="&#x26;" horiz-adv-x="519" 
d="M225 -8q-90 0 -145.5 50.5t-55.5 137.5v10q0 67 31 113t95 84q-52 79 -52 140v9q0 70 41 111t105 41t103 -39.5t39 -102.5v-8q0 -100 -111 -168l99 -159q12 46 12 110v34h95v-36q0 -124 -45 -206l71 -113h-114l-23 37q-60 -45 -145 -45zM231 83q55 0 90 31l-128 204
q-62 -50 -62 -125v-9q0 -48 28 -74.5t72 -26.5zM196 532q0 -45 38 -98q56 40 56 99v6q0 28 -12 45.5t-33 17.5q-23 0 -36 -17t-13 -47v-6z" />
    <glyph glyph-name="quotesingle" unicode="'" horiz-adv-x="164" 
d="M40 478l-9 202h102l-9 -202h-84z" />
    <glyph glyph-name="parenleft" unicode="(" horiz-adv-x="263" 
d="M184 -134q-151 178 -151 418v14q0 240 151 418l63 -45q-55 -80 -82.5 -168.5t-27.5 -206.5v-10q0 -118 27.5 -206.5t82.5 -168.5z" />
    <glyph glyph-name="parenright" unicode=")" horiz-adv-x="263" 
d="M79 -134l-63 45q55 80 82.5 168.5t27.5 206.5v10q0 118 -27.5 206.5t-82.5 168.5l63 45q151 -178 151 -418v-14q0 -240 -151 -418z" />
    <glyph glyph-name="asterisk" unicode="*" horiz-adv-x="291" 
d="M108 424l11 85l-59 -49l-36 63l72 29l-72 30l36 62l59 -49l-11 85h74l-11 -85l59 49l37 -62l-72 -30l72 -29l-37 -63l-59 49l11 -85h-74z" />
    <glyph glyph-name="plus" unicode="+" horiz-adv-x="325" 
d="M33 238v87h84v97h91v-97h84v-87h-84v-97h-91v97h-84z" />
    <glyph glyph-name="comma" unicode="," horiz-adv-x="187" 
d="M37 -96l29 97q-38 18 -38 59q0 28 19.5 46.5t46.5 18.5t46 -18.5t19 -46.5q0 -23 -22 -64l-49 -92h-51z" />
    <glyph glyph-name="hyphen" unicode="-" horiz-adv-x="219" 
d="M29 170v88h161v-88h-161z" />
    <glyph glyph-name="period" unicode="." horiz-adv-x="187" 
d="M94 -5q-27 0 -46.5 18.5t-19.5 46.5t19.5 46.5t46.5 18.5t46 -18.5t19 -46.5t-19 -46.5t-46 -18.5z" />
    <glyph glyph-name="slash" unicode="/" horiz-adv-x="338" 
d="M-2 -128l217 838h97l-217 -838h-97z" />
    <glyph glyph-name="zero" unicode="0" horiz-adv-x="451" 
d="M226 -8q-92 0 -148.5 74t-56.5 205v20q0 131 56.5 204.5t148.5 73.5q91 0 147.5 -73.5t56.5 -204.5v-20q0 -131 -56.5 -205t-147.5 -74zM226 83q99 0 99 191v14q0 190 -99 190q-100 0 -100 -190v-14q0 -191 100 -191z" />
    <glyph glyph-name="one" unicode="1" horiz-adv-x="238" 
d="M82 0v474h-64v87h166v-561h-102z" />
    <glyph glyph-name="two" unicode="2" horiz-adv-x="367" 
d="M6 0v7l157 238q34 52 49 86.5t15 68.5v9q0 34 -17 52t-44 18q-25 0 -40 -13t-32 -40l-75 54q49 89 153 89q72 0 115.5 -41.5t43.5 -111.5v-11q0 -46 -20 -93t-68 -118l-72 -108h165v-86h-330z" />
    <glyph glyph-name="three" unicode="3" horiz-adv-x="364" 
d="M161 -8q-94 0 -148 58l57 68q38 -38 87 -38q38 0 60.5 27t22.5 75v4q0 49 -24 72.5t-63 23.5q-37 0 -63 -14l-6 9l112 197h-155v87h300v-7l-124 -204q54 -9 90.5 -52.5t36.5 -111.5v-6q0 -86 -48.5 -137t-134.5 -51z" />
    <glyph glyph-name="four" unicode="4" horiz-adv-x="403" 
d="M231 0v118h-225v17l307 436h16v-373h55v-80h-55v-118h-98zM196 268l-47 -70h82v64l2 66q-20 -34 -37 -60z" />
    <glyph glyph-name="five" unicode="5" horiz-adv-x="358" 
d="M153 -8q-89 0 -147 62l61 64q38 -38 82 -38q38 0 61.5 24t23.5 73v5q0 46 -24.5 71t-64.5 25q-58 0 -95 -39l-7 4v318h263v-87h-177v-122q18 8 50 8q69 0 114.5 -46t45.5 -133v-6q0 -84 -50.5 -133.5t-135.5 -49.5z" />
    <glyph glyph-name="six" unicode="6" horiz-adv-x="386" 
d="M193 -8q-75 0 -123.5 50.5t-48.5 130.5v10q0 78 56 170l126 208h111l-91 -149q-10 -16 -19 -29t-14 -18l-4 -5q9 3 24 3q68 0 111.5 -49t43.5 -128v-13q0 -82 -48 -131.5t-124 -49.5zM193 77q33 0 51.5 27t18.5 70v12q0 43 -18.5 70t-51.5 27q-34 0 -52.5 -26.5
t-18.5 -70.5v-12q0 -43 19 -70t52 -27z" />
    <glyph glyph-name="seven" unicode="7" horiz-adv-x="358" 
d="M51 0l168 474h-198v87h327v-6l-193 -555h-104z" />
    <glyph glyph-name="eight" unicode="8" horiz-adv-x="398" 
d="M199 -8q-79 0 -129.5 48t-50.5 117v13q0 92 82 136q-59 38 -59 111v10q0 60 45 101t112 41q68 0 112.5 -41t44.5 -101v-10q0 -73 -59 -111q82 -44 82 -136v-13q0 -70 -50.5 -117.5t-129.5 -47.5zM199 75q34 0 56 25t22 66v10q0 40 -22 65.5t-56 25.5q-33 0 -55.5 -25.5
t-22.5 -65.5v-10q0 -42 22.5 -66.5t55.5 -24.5zM199 338q28 0 44.5 19t16.5 51v9q0 31 -17 50.5t-44 19.5q-26 0 -43.5 -19.5t-17.5 -50.5v-9q0 -31 17 -50.5t44 -19.5z" />
    <glyph glyph-name="nine" unicode="9" horiz-adv-x="386" 
d="M102 0l75 148q14 28 32 55q-9 -4 -31 -4q-70 0 -113.5 47.5t-43.5 126.5v13q0 82 48 132.5t124 50.5q75 0 123.5 -50.5t48.5 -130.5v-10q0 -77 -47 -170l-105 -208h-111zM193 278q34 0 52.5 26.5t18.5 70.5v12q0 43 -19 70t-52 27t-51.5 -27t-18.5 -70v-12
q0 -43 18.5 -70t51.5 -27z" />
    <glyph glyph-name="colon" unicode=":" horiz-adv-x="196" 
d="M98 197q-26 0 -45.5 18.5t-19.5 46.5t19.5 46.5t45.5 18.5q27 0 46 -18.5t19 -46.5t-19 -46.5t-46 -18.5zM98 -5q-26 0 -45.5 18.5t-19.5 46.5t19.5 46.5t45.5 18.5q27 0 46 -18.5t19 -46.5t-19 -46.5t-46 -18.5z" />
    <glyph glyph-name="semicolon" unicode=";" horiz-adv-x="196" 
d="M41 -96l29 97q-37 18 -37 59q0 28 19.5 46.5t45.5 18.5q27 0 46 -18.5t19 -46.5q0 -23 -22 -64l-49 -92h-51zM98 197q-26 0 -45.5 18.5t-19.5 46.5t19.5 46.5t45.5 18.5q27 0 46 -18.5t19 -46.5t-19 -46.5t-46 -18.5z" />
    <glyph glyph-name="less" unicode="&#x3c;" horiz-adv-x="279" 
d="M245 105l-220 150v10l220 148v-95l-91 -59l91 -59v-95z" />
    <glyph glyph-name="equal" unicode="=" horiz-adv-x="299" 
d="M33 293v87h233v-87h-233zM33 153v87h233v-87h-233z" />
    <glyph glyph-name="greater" unicode="&#x3e;" horiz-adv-x="279" 
d="M34 105v95l91 59l-91 59v95l220 -150v-10z" />
    <glyph glyph-name="question" unicode="?" horiz-adv-x="350" 
d="M105 200v197h22q41 0 67 25t26 71v10q0 44 -20 69t-61 25q-43 0 -78 -33l-55 74q58 50 142 50q80 0 128.5 -49t48.5 -134v-12q0 -69 -33 -114t-95 -59v-120h-92zM150 -5q-27 0 -46.5 18.5t-19.5 46.5t19.5 46.5t46.5 18.5t46 -18.5t19 -46.5t-19 -46.5t-46 -18.5z" />
    <glyph glyph-name="at" unicode="@" horiz-adv-x="598" 
d="M301 -153q-122 0 -200 83.5t-78 231.5v12q0 147 81.5 231.5t200.5 84.5q117 0 193.5 -75.5t76.5 -214.5v-12q0 -194 -121 -194q-70 0 -92 59q-29 -61 -89 -61q-46 0 -79 41t-33 120v13q0 79 31 120.5t75 41.5t67 -39v30h96v-216q0 -39 26 -39q20 0 32.5 32t12.5 93v10
q0 112 -53 167.5t-142 55.5q-90 0 -149 -65t-59 -182v-10q0 -120 54 -185t145 -65q53 0 107 26l31 -62q-67 -32 -134 -32zM299 73q37 0 37 81v12q0 80 -37 80q-40 0 -40 -80v-12q0 -81 40 -81z" />
    <glyph glyph-name="A" unicode="A" horiz-adv-x="489" 
d="M368 0l-39 127h-175l-39 -127h-104l227 686h13l227 -686h-110zM217 330l-36 -116h121l-34 116q-22 73 -25 99q-18 -73 -26 -99z" />
    <glyph glyph-name="B" unicode="B" horiz-adv-x="468" 
d="M54 0v680h161q95 0 145 -48t50 -125v-8q0 -103 -91 -139q122 -31 122 -164v-7q0 -84 -54 -136.5t-155 -52.5h-178zM156 90h70q55 0 82.5 29.5t27.5 79.5v4q0 51 -29 80t-87 29h-64v-222zM156 396h53q49 0 73 25.5t24 68.5v6q0 94 -99 94h-51v-194z" />
    <glyph glyph-name="C" unicode="C" horiz-adv-x="449" 
d="M290 -9q-122 0 -191.5 90.5t-69.5 249.5v18q0 158 71.5 248.5t197.5 90.5q70 0 123 -35l-43 -84q-42 24 -79 24q-78 0 -120.5 -65t-42.5 -182v-12q0 -118 42.5 -183.5t121.5 -65.5q40 0 87 28l43 -82q-60 -40 -140 -40z" />
    <glyph glyph-name="D" unicode="D" horiz-adv-x="510" 
d="M54 0v680h143q132 0 208.5 -89t76.5 -243v-16q0 -152 -76.5 -242t-208.5 -90h-143zM159 92h32q86 0 134.5 64t48.5 179v10q0 243 -183 243h-32v-496z" />
    <glyph glyph-name="E" unicode="E" horiz-adv-x="420" 
d="M54 0v680h325v-92h-221v-199h186v-92h-186v-205h229v-92h-333z" />
    <glyph glyph-name="F" unicode="F" horiz-adv-x="397" 
d="M54 0v680h316v-92h-211v-218h183v-92h-183v-278h-105z" />
    <glyph glyph-name="G" unicode="G" horiz-adv-x="504" 
d="M305 -9q-135 0 -205.5 89t-70.5 248v24q0 153 69.5 244.5t197.5 91.5q92 0 149 -42l-44 -85q-46 32 -102 32q-79 0 -121 -65t-42 -179v-18q0 -118 40 -183t122 -65q39 0 75 18v167h-108v92h202v-318q-74 -51 -162 -51z" />
    <glyph glyph-name="H" unicode="H" horiz-adv-x="519" 
d="M54 0v680h105v-301h201v301h105v-680h-105v287h-201v-287h-105z" />
    <glyph glyph-name="I" unicode="I" horiz-adv-x="219" 
d="M57 0v680h105v-680h-105z" />
    <glyph glyph-name="J" unicode="J" horiz-adv-x="374" 
d="M154 -8q-96 0 -148 64l67 68q33 -38 73 -38q70 0 70 87v507h105v-511q0 -86 -44.5 -131.5t-122.5 -45.5z" />
    <glyph glyph-name="K" unicode="K" horiz-adv-x="475" 
d="M355 0l-145 287l-52 -74v-213h-104v680h104v-315l186 315h111l-178 -303l190 -377h-112z" />
    <glyph glyph-name="L" unicode="L" horiz-adv-x="397" 
d="M54 0v680h105v-588h212v-92h-317z" />
    <glyph glyph-name="M" unicode="M" horiz-adv-x="577" 
d="M54 0v686h13l223 -319l220 319h13v-686h-101v328v21t0.5 22t1 19t0.5 14v6q-8 -15 -44 -67l-88 -122h-9l-87 122l-14 20.5t-13.5 20.5t-10.5 16l-5 8v-6q0 -5 0.5 -13.5t1 -18.5t0.5 -21.5v-20.5v-328h-101z" />
    <glyph glyph-name="N" unicode="N" horiz-adv-x="503" 
d="M436 -6l-237 337q-37 50 -49 74l1 -17q1 -17 1.5 -40t0.5 -38v-310h-99v686h13l237 -341q17 -25 49 -78l-1 7v17.5t-0.5 23l-1 26t-0.5 24.5v315h99v-686h-13z" />
    <glyph glyph-name="O" unicode="O" horiz-adv-x="550" 
d="M275 -9q-111 0 -178.5 90.5t-67.5 249.5v18q0 159 67.5 249t178.5 90t178.5 -90t67.5 -249v-18q0 -159 -67.5 -249.5t-178.5 -90.5zM275 86q64 0 101 64t37 184v12q0 120 -37 184t-101 64t-101.5 -64t-37.5 -184v-12q0 -120 37.5 -184t101.5 -64z" />
    <glyph glyph-name="P" unicode="P" horiz-adv-x="448" 
d="M54 0v680h150q103 0 162 -56t59 -152v-9q0 -99 -60 -159t-162 -60h-44v-244h-105zM159 336h42q59 0 89 33.5t30 90.5v7q0 121 -119 121h-42v-252z" />
    <glyph glyph-name="Q" unicode="Q" horiz-adv-x="550" 
d="M227 -116v114q-92 18 -145 105t-53 228v18q0 159 67.5 249t178.5 90t178.5 -90t67.5 -249v-18q0 -141 -53.5 -228t-144.5 -105v-114h-96zM323 194v-103q90 43 90 243v12q0 120 -37 184t-101 64t-101.5 -64t-37.5 -184v-12q0 -199 91 -243v103h96z" />
    <glyph glyph-name="R" unicode="R" horiz-adv-x="464" 
d="M54 0v680h156q102 0 158.5 -53.5t56.5 -145.5v-8q0 -62 -27.5 -110t-76.5 -74l131 -289h-110l-118 264h-65v-264h-105zM159 353h48q56 0 85 32t29 85v6q0 112 -114 112h-48v-235z" />
    <glyph glyph-name="S" unicode="S" horiz-adv-x="400" 
d="M178 -9q-107 0 -173 68l62 74q53 -49 108 -49q43 0 68.5 23t25.5 61v8q0 30 -15.5 54.5t-53.5 56.5l-66 56q-51 43 -75 83.5t-24 95.5v7q0 70 47.5 114.5t123.5 44.5q81 0 142 -43l-50 -80q-44 31 -89 31q-31 0 -52 -18t-21 -47v-5q0 -31 15.5 -53.5t52.5 -53.5l68 -57
q52 -44 76.5 -86.5t24.5 -95.5v-10q0 -79 -52 -129t-143 -50z" />
    <glyph glyph-name="T" unicode="T" horiz-adv-x="423" 
d="M159 0v588h-139v92h383v-92h-139v-588h-105z" />
    <glyph glyph-name="U" unicode="U" horiz-adv-x="504" 
d="M252 -9q-92 0 -146.5 53.5t-54.5 155.5v480h105v-478q0 -56 25 -85.5t71 -29.5t71 29.5t25 85.5v478h105v-480q0 -102 -54.5 -155.5t-146.5 -53.5z" />
    <glyph glyph-name="V" unicode="V" horiz-adv-x="486" 
d="M238 -5l-230 685h107l97 -295l34 -124q19 76 34 124l96 295h102l-226 -685h-14z" />
    <glyph glyph-name="W" unicode="W" horiz-adv-x="671" 
d="M186 -5l-175 685h105l69 -272q17 -70 27 -123q24 96 34 126l88 276h11l88 -276l34 -126q14 73 26 123l67 272h100l-175 -685h-13l-101 318q-27 80 -32 112l-5 -19l-14 -46.5l-14 -46.5l-107 -318h-13z" />
    <glyph glyph-name="X" unicode="X" horiz-adv-x="490" 
d="M16 0l165 364l-138 316h111l57 -148q7 -17 15 -40.5l13.5 -39t6.5 -17.5q19 57 35 97l57 148h107l-136 -315l165 -365h-112l-81 187l-17 42t-15 41l-6 17q-13 -40 -38 -99l-82 -188h-107z" />
    <glyph glyph-name="Y" unicode="Y" horiz-adv-x="465" 
d="M181 0v264l-173 416h107l87 -218q12 -32 34 -98q7 31 33 98l85 218h103l-171 -415v-265h-105z" />
    <glyph glyph-name="Z" unicode="Z" horiz-adv-x="427" 
d="M10 0v8l249 580h-209v92h358v-8l-249 -580h239v-92h-388z" />
    <glyph glyph-name="bracketleft" unicode="[" horiz-adv-x="260" 
d="M57 -128v838h176v-85h-77v-668h77v-85h-176z" />
    <glyph glyph-name="backslash" unicode="\" horiz-adv-x="338" 
d="M243 -128l-217 838h97l217 -838h-97z" />
    <glyph glyph-name="bracketright" unicode="]" horiz-adv-x="260" 
d="M27 -128v85h77v668h-77v85h176v-838h-176z" />
    <glyph glyph-name="asciicircum" unicode="^" horiz-adv-x="323" 
d="M28 458l129 235h9l129 -235h-88l-46 86l-46 -86h-87z" />
    <glyph glyph-name="underscore" unicode="_" horiz-adv-x="228" 
d="M-3 -128v87h234v-87h-234z" />
    <glyph glyph-name="grave" unicode="`" 
d="M137 419l-64 142h109l31 -142h-76z" />
    <glyph glyph-name="a" unicode="a" horiz-adv-x="304" 
d="M110 -9q-43 0 -69.5 29t-26.5 83v5q0 51 33.5 79t92.5 28h39v18q0 48 -46 48q-36 0 -65 -24l-46 67q48 40 126 40q128 0 128 -130v-234h-97v29q-25 -38 -69 -38zM141 67q38 0 38 47v33h-34q-36 0 -36 -38v-4q0 -38 32 -38z" />
    <glyph glyph-name="b" unicode="b" horiz-adv-x="354" 
d="M210 -9q-54 0 -83 45v-36h-97v701h97v-381q25 44 84 44q53 0 89 -46t36 -135v-11q0 -89 -36.5 -135t-89.5 -46zM180 75q56 0 56 98v9q0 98 -56 98q-26 0 -40.5 -25.5t-14.5 -72.5v-9q0 -47 14.5 -72.5t40.5 -25.5z" />
    <glyph glyph-name="c" unicode="c" horiz-adv-x="273" 
d="M179 -9q-77 0 -119 48t-42 133v11q0 84 43.5 132.5t113.5 48.5q51 0 88 -24l-38 -75q-21 12 -41 12q-28 0 -47 -24.5t-19 -69.5v-10q0 -46 18 -70.5t51 -24.5q19 0 43 13l33 -78q-29 -22 -84 -22z" />
    <glyph glyph-name="d" unicode="d" horiz-adv-x="354" 
d="M144 -9q-53 0 -89.5 46t-36.5 135v11q0 89 36 135t89 46q59 0 84 -43v380h97v-701h-97v36q-29 -45 -83 -45zM174 75q26 0 40.5 25.5t14.5 72.5v9q0 47 -14.5 72.5t-40.5 25.5q-56 0 -56 -98v-9q0 -98 56 -98z" />
    <glyph glyph-name="e" unicode="e" 
d="M187 -9q-83 0 -126 48t-43 134v9q0 83 41.5 132.5t110.5 49.5q70 0 106.5 -49.5t36.5 -133.5v-38h-194q7 -67 69 -67q38 0 71 21l38 -76q-46 -30 -110 -30zM170 284q-44 0 -52 -71h97q-4 71 -45 71z" />
    <glyph glyph-name="f" unicode="f" horiz-adv-x="227" 
d="M13 276v79h34v234q0 65 30 97t83 32q45 0 71 -20l-33 -72q-11 9 -26 9q-28 0 -28 -45v-235h69v-79h-69v-276h-97v276h-34z" />
    <glyph glyph-name="g" unicode="g" horiz-adv-x="354" 
d="M158 -215q-87 0 -138 56l57 68q21 -20 36.5 -28t41.5 -8q72 0 72 83v80q-29 -45 -83 -45q-53 0 -89.5 45.5t-36.5 133.5v15q0 88 36 133.5t89 45.5q59 0 84 -43v34h97v-401q0 -84 -44.5 -126.5t-121.5 -42.5zM174 75q55 0 55 96v13q0 96 -55 96q-56 0 -56 -96v-13
q0 -96 56 -96z" />
    <glyph glyph-name="h" unicode="h" horiz-adv-x="337" 
d="M29 0v701h97v-386q29 49 87 49q44 0 71 -32t27 -91v-241h-97v230q0 21 -11 32.5t-29 11.5q-48 0 -48 -51v-223h-97z" />
    <glyph glyph-name="i" unicode="i" horiz-adv-x="157" 
d="M30 0v355h97v-355h-97zM78 422q-22 0 -39 16.5t-17 39.5q0 24 17 40t39 16q24 0 40 -16t16 -40t-16.5 -40t-39.5 -16z" />
    <glyph glyph-name="j" unicode="j" horiz-adv-x="157" 
d="M17 -214q-38 0 -62 13l24 79q10 -6 23 -6q28 0 28 34v449h97v-451q0 -56 -28.5 -87t-81.5 -31zM78 422q-22 0 -39 16.5t-17 39.5q0 24 17 40t39 16q24 0 40 -16t16 -40t-16.5 -40t-39.5 -16z" />
    <glyph glyph-name="k" unicode="k" horiz-adv-x="321" 
d="M214 0l-66 133l-22 -29v-104h-97v701h97v-475l89 129h105l-102 -144l103 -211h-107z" />
    <glyph glyph-name="l" unicode="l" horiz-adv-x="157" 
d="M30 0v701h97v-701h-97z" />
    <glyph glyph-name="m" unicode="m" horiz-adv-x="502" 
d="M29 0v355h97v-39q29 48 82 48t75 -51q32 51 95 51q44 0 71 -31t27 -90v-243h-97v232q0 42 -35 42q-43 0 -43 -49v-225h-97v232q0 42 -36 42q-42 0 -42 -49v-225h-97z" />
    <glyph glyph-name="n" unicode="n" horiz-adv-x="336" 
d="M29 0v355h97v-40q29 49 87 49q44 0 71 -32t27 -91v-241h-97v230q0 21 -11 32.5t-29 11.5q-48 0 -48 -51v-223h-97z" />
    <glyph glyph-name="o" unicode="o" horiz-adv-x="347" 
d="M174 -9q-71 0 -113.5 48t-42.5 132v13q0 84 42.5 132t113.5 48t113 -48t42 -132v-13q0 -84 -42 -132t-113 -48zM173 74q55 0 55 98v12q0 97 -55 97t-55 -97v-12q0 -98 55 -98z" />
    <glyph glyph-name="p" unicode="p" horiz-adv-x="354" 
d="M30 -205v560h97v-35q25 44 84 44q53 0 89 -46t36 -135v-11q0 -89 -36.5 -135t-89.5 -46q-54 0 -83 45v-241h-97zM180 75q56 0 56 98v9q0 98 -56 98q-26 0 -40.5 -25.5t-14.5 -72.5v-9q0 -47 14.5 -72.5t40.5 -25.5z" />
    <glyph glyph-name="q" unicode="q" horiz-adv-x="354" 
d="M227 -205v241q-29 -45 -83 -45q-53 0 -89.5 46t-36.5 135v11q0 89 36 135t89 46q59 0 84 -43v34h97v-560h-97zM174 75q26 0 40.5 25.5t14.5 72.5v9q0 47 -14.5 72.5t-40.5 25.5q-56 0 -56 -98v-9q0 -98 56 -98z" />
    <glyph glyph-name="r" unicode="r" horiz-adv-x="239" 
d="M29 0v355h97v-44q23 51 72 51q19 0 37 -10l-23 -87q-20 6 -29 6q-57 0 -57 -79v-192h-97z" />
    <glyph glyph-name="s" unicode="s" horiz-adv-x="261" 
d="M125 -9q-77 0 -118 47l51 61q26 -30 61 -30q37 0 37 26v3q0 14 -29 33q-1 0 -32 20q-72 45 -72 108v4q0 46 31 73.5t83 27.5q57 0 97 -31l-45 -63q-22 18 -49 18q-30 0 -30 -22v-2q0 -11 10 -19.5t35 -23.5q7 -4 11 -6q82 -49 82 -115v-5q0 -46 -33 -75t-90 -29z" />
    <glyph glyph-name="t" unicode="t" horiz-adv-x="223" 
d="M13 276v79h34v109h97v-109h63v-79h-63v-169q0 -33 23 -33q10 0 23 8l30 -70q-28 -20 -71 -20q-102 0 -102 115v169h-34z" />
    <glyph glyph-name="u" unicode="u" horiz-adv-x="337" 
d="M124 -9q-44 0 -71 32t-27 92v240h97v-230q0 -21 11 -32.5t29 -11.5q48 0 48 52v222h97v-355h-97v41q-29 -50 -87 -50z" />
    <glyph glyph-name="v" unicode="v" horiz-adv-x="314" 
d="M153 -6l-151 361h101l39 -104l20 -66q11 41 20 66l38 104h92l-148 -361h-11z" />
    <glyph glyph-name="w" unicode="w" horiz-adv-x="428" 
d="M127 -6l-121 361h99l31 -100l17 -60q11 33 21 59l42 106h10l41 -106l21 -59q6 33 15 60l32 100h87l-115 -361h-10l-60 142q-12 26 -19 53l-3 -9q-3 -9 -8 -22t-9 -22l-61 -142h-10z" />
    <glyph glyph-name="x" unicode="x" horiz-adv-x="324" 
d="M7 0l101 184l-90 171h104l45 -98l43 98h101l-90 -164l103 -191h-104l-58 117l-54 -117h-101z" />
    <glyph glyph-name="y" unicode="y" horiz-adv-x="317" 
d="M41 -205l79 241l-118 319h100l44 -134q10 -32 19 -70q16 64 18 70l42 134h90l-183 -560h-91z" />
    <glyph glyph-name="z" unicode="z" horiz-adv-x="277" 
d="M9 0v6l128 272h-107v77h236v-6l-127 -271h117v-78h-247z" />
    <glyph glyph-name="braceleft" unicode="{" horiz-adv-x="289" 
d="M225 -128q-56 0 -94 30t-38 97v200q0 53 -48 53h-28v85h28q48 0 48 53v193q0 67 38 97t94 30h37v-85h-33q-37 0 -37 -42v-203q0 -72 -61 -85q61 -13 61 -85v-211q0 -42 37 -42h33v-85h-37z" />
    <glyph glyph-name="bar" unicode="|" horiz-adv-x="214" 
d="M60 -128v838h94v-838h-94z" />
    <glyph glyph-name="braceright" unicode="}" horiz-adv-x="289" 
d="M27 -128v85h33q37 0 37 42v211q0 72 61 85q-61 13 -61 85v203q0 42 -37 42h-33v85h37q56 0 94 -30t38 -97v-193q0 -53 48 -53h28v-85h-28q-48 0 -48 -53v-200q0 -67 -38 -97t-94 -30h-37z" />
    <glyph glyph-name="asciitilde" unicode="~" horiz-adv-x="332" 
d="M104 202l-75 4q3 48 29 78.5t61 30.5q23 0 50 -14t35 -14q21 0 25 24l73 -4q-3 -49 -28 -79t-60 -30q-24 0 -51 14t-35 14q-10 0 -16 -4.5t-8 -19.5z" />
    <glyph glyph-name="uni00A0" unicode="&#xa0;" horiz-adv-x="182" 
 />
    <glyph glyph-name="exclamdown" unicode="&#xa1;" horiz-adv-x="217" 
d="M55 0l10 480h88l10 -480h-108zM108 555q-27 0 -46 18.5t-19 46.5t19 46.5t46 18.5t46.5 -18.5t19.5 -46.5t-19.5 -46.5t-46.5 -18.5z" />
    <glyph glyph-name="cent" unicode="&#xa2;" horiz-adv-x="273" 
d="M117 -96v97q-99 34 -99 171v11q0 64 26.5 108.5t72.5 62.5v88h92v-81q26 -4 54 -21l-38 -73q-21 12 -41 12q-28 0 -47 -25.5t-19 -70.5v-10q0 -46 18.5 -71.5t50.5 -25.5q19 0 43 13l33 -76q-19 -14 -54 -20v-89h-92z" />
    <glyph glyph-name="sterling" unicode="&#xa3;" horiz-adv-x="422" 
d="M57 236v80h44q-15 47 -15 87v8q0 70 45 113t123 43q86 0 140 -53l-57 -71q-37 34 -76 34q-32 0 -51 -20.5t-19 -54.5v-6q0 -35 12 -80h115v-80h-90q16 -55 16 -95q0 -23 -4 -38q37 -23 71 -23t65 24l42 -76q-43 -36 -102 -36t-110 42q-37 -42 -95 -42q-45 0 -73.5 23
t-28.5 63q0 41 26.5 65t70.5 24q22 0 47 -9q-7 36 -23 78h-73zM109 55q30 0 42 28q-23 18 -42 18q-27 0 -27 -23q0 -9 7.5 -16t19.5 -7z" />
    <glyph glyph-name="yen" unicode="&#xa5;" horiz-adv-x="428" 
d="M28 261v70h84l-98 230h115l59 -155l30 -96q15 57 30 96l60 155h106l-99 -230h85v-70h-115l-19 -44h134v-70h-134v-147h-104v147h-134v70h133l-19 44h-114z" />
    <glyph glyph-name="section" unicode="&#xa7;" horiz-adv-x="415" 
d="M189 -190q-95 0 -159 60l58 75q51 -43 94 -43q29 0 47.5 13.5t18.5 36.5v4q0 7 -1.5 13t-6 12l-7.5 10t-11.5 10l-13 9l-16 10.5t-16.5 10.5l-67 44q-88 57 -88 133v5q0 79 78 105q-41 41 -41 100v6q0 65 44.5 104.5t118.5 39.5q89 0 143 -49l-53 -77q-42 35 -84 35
q-30 0 -46 -13.5t-16 -36.5v-3q0 -21 12 -34t39 -31l84 -54q47 -30 70.5 -62t23.5 -73v-7q0 -78 -78 -109q40 -42 40 -95v-6q0 -63 -44.5 -103t-122.5 -40zM241 220l-80 51q-41 -8 -41 -46v-3q0 -18 11.5 -32t40.5 -33l80 -52q43 10 43 45v3q0 18 -12 33t-42 34z" />
    <glyph glyph-name="dieresis" unicode="&#xa8;" 
d="M236 422q-21 0 -37.5 16t-16.5 38t16.5 38t37.5 16t37.5 -16t16.5 -38t-16.5 -38t-37.5 -16zM94 422q-21 0 -37.5 16t-16.5 38t16.5 38t37.5 16t37.5 -16t16.5 -38t-16.5 -38t-37.5 -16z" />
    <glyph glyph-name="copyright" unicode="&#xa9;" horiz-adv-x="460" 
d="M230 68q-86 0 -146.5 60t-60.5 149q0 90 60 149.5t147 59.5q86 0 146.5 -59.5t60.5 -149.5q0 -89 -60.5 -149t-146.5 -60zM230 109q69 0 116.5 48t47.5 120q0 73 -47.5 120.5t-116.5 47.5q-70 0 -117 -47.5t-47 -120.5q0 -72 47.5 -120t116.5 -48zM231 152
q-51 0 -86.5 35t-35.5 89q0 56 35.5 91t87.5 35q61 0 92 -45l-50 -43q-18 21 -42 21q-22 0 -36.5 -17t-14.5 -42q0 -24 14.5 -40.5t36.5 -16.5q29 0 44 23l54 -41q-31 -49 -99 -49z" />
    <glyph glyph-name="ordfeminine" unicode="&#xaa;" horiz-adv-x="273" 
d="M99 233q-39 0 -63 26.5t-24 74.5v5q0 46 30.5 71t83.5 25h35v16q0 39 -41 39q-33 0 -59 -21l-41 64q44 36 113 36q115 0 115 -117v-211h-87v27q-22 -35 -62 -35zM127 302q34 0 34 42v30h-31q-32 0 -32 -34v-4q0 -34 29 -34z" />
    <glyph glyph-name="guillemotleft" unicode="&#xab;" horiz-adv-x="322" 
d="M212 52l-50 133v4l50 131h91l-50 -133l50 -135h-91zM69 52l-50 133v4l50 131h91l-50 -133l50 -135h-91z" />
    <glyph glyph-name="registered" unicode="&#xae;" horiz-adv-x="291" 
d="M145 439q-53 0 -89.5 35.5t-36.5 89.5t36.5 89.5t89.5 35.5t90 -35.5t37 -89.5t-37 -89.5t-90 -35.5zM145 464q43 0 70.5 27.5t27.5 72.5t-27.5 72.5t-70.5 27.5t-70 -27.5t-27 -72.5t27 -72.5t70 -27.5zM131 541v-43h-37v136h54q26 0 40 -13t14 -35q0 -28 -25 -40
l28 -48h-40l-23 43h-11zM131 568h15q19 0 19 17q0 16 -19 16h-15v-33z" />
    <glyph glyph-name="macron" unicode="&#xaf;" 
d="M75 438v79h180v-79h-180z" />
    <glyph glyph-name="degree" unicode="&#xb0;" horiz-adv-x="282" 
d="M141 357q-46 0 -78 31t-32 75q0 45 32 75.5t78 30.5t78 -30.5t32 -75.5q0 -44 -32 -75t-78 -31zM141 417q19 0 31 13t12 33t-12 33t-31 13t-31 -13t-12 -33t12 -33t31 -13z" />
    <glyph glyph-name="two.superior" unicode="&#xb2;" horiz-adv-x="233" 
d="M9 408v8l101 132q21 27 21 46v1q0 21 -21 21q-20 0 -34 -26l-60 36q30 58 97 58q45 0 69.5 -22t24.5 -58v-2q0 -43 -45 -97l-28 -34h70v-63h-195z" />
    <glyph glyph-name="three.superior" unicode="&#xb3;" horiz-adv-x="238" 
d="M104 404q-57 0 -88 35l43 51q15 -20 39 -20q17 0 27 10t10 24v2q0 15 -10 23.5t-26 8.5q-20 0 -32 -7l-6 6l52 81h-78v62h177v-7l-60 -92q58 -15 58 -76v-3q0 -45 -29 -71.5t-77 -26.5z" />
    <glyph glyph-name="acute" unicode="&#xb4;" 
d="M125 419l31 142h109l-64 -142h-76z" />
    <glyph glyph-name="paragraph" unicode="&#xb6;" horiz-adv-x="450" 
d="M185 0v378h-4q-73 0 -116 41.5t-43 110.5t43 109.5t116 40.5h215v-680h-82v597h-47v-597h-82z" />
    <glyph glyph-name="periodcentered" unicode="&#xb7;" horiz-adv-x="187" 
d="M94 159q-27 0 -46.5 18.5t-19.5 46.5t19.5 46.5t46.5 18.5t46 -18.5t19 -46.5t-19 -46.5t-46 -18.5z" />
    <glyph glyph-name="cedilla" unicode="&#xb8;" 
d="M168 -174q-32 0 -52 13l22 47q9 -7 24 -7q26 0 26 21v3q0 20 -25 20h-18v77h50v-35q54 -10 54 -64v-4q0 -33 -23 -52t-58 -19z" />
    <glyph glyph-name="one.superior" unicode="&#xb9;" horiz-adv-x="183" 
d="M60 408v208h-38v64h114v-272h-76z" />
    <glyph glyph-name="ordmasculine" unicode="&#xba;" horiz-adv-x="311" 
d="M156 233q-63 0 -101.5 43.5t-38.5 118.5v12q0 75 38.5 118.5t101.5 43.5q64 0 102 -43.5t38 -118.5v-12q0 -76 -38 -119t-102 -43zM156 308q49 0 49 88v11q0 87 -49 87q-50 0 -50 -87v-11q0 -88 50 -88z" />
    <glyph glyph-name="guillemotright" unicode="&#xbb;" horiz-adv-x="322" 
d="M162 52l50 133l-50 135h91l50 -133v-4l-50 -131h-91zM19 52l50 133l-50 135h91l50 -133v-4l-50 -131h-91z" />
    <glyph glyph-name="onequarter" unicode="&#xbc;" horiz-adv-x="300" 
d="M113 408v208h-38v64h114v-272h-76zM26 309v67h248v-67h-248zM157 0v40h-128v14l176 229h20v-182h35v-61h-35v-40h-68zM144 119l-15 -21h33v14q0 14 2 42q-9 -21 -20 -35z" />
    <glyph glyph-name="onehalf" unicode="&#xbd;" horiz-adv-x="296" 
d="M26 309v67h244v-67h-244zM111 408v208h-38v64h114v-272h-76zM50 0v8l101 132q21 27 21 46v1q0 21 -21 21q-20 0 -34 -26l-60 36q30 58 97 58q45 0 69.5 -22t24.5 -58v-2q0 -43 -45 -97l-28 -34h70v-63h-195z" />
    <glyph glyph-name="threequarters" unicode="&#xbe;" horiz-adv-x="300" 
d="M26 309v67h248v-67h-248zM141 404q-57 0 -88 35l43 51q15 -20 39 -20q17 0 27 10t10 24v2q0 15 -10 23.5t-26 8.5q-20 0 -32 -7l-6 6l52 81h-78v62h177v-7l-60 -92q58 -15 58 -76v-3q0 -45 -29 -71.5t-77 -26.5zM157 0v40h-128v14l176 229h20v-182h35v-61h-35v-40h-68z
M144 119l-15 -21h33v14q0 14 2 42q-9 -21 -20 -35z" />
    <glyph glyph-name="questiondown" unicode="&#xbf;" horiz-adv-x="350" 
d="M202 -8q-80 0 -128.5 49t-48.5 134v12q0 69 33 114t95 59v120h92v-197h-22q-41 0 -67 -25t-26 -71v-10q0 -44 20 -69t61 -25q43 0 78 33l55 -74q-58 -50 -142 -50zM200 555q-27 0 -46 18.5t-19 46.5t19 46.5t46 18.5t46.5 -18.5t19.5 -46.5t-19.5 -46.5t-46.5 -18.5z" />
    <glyph glyph-name="Agrave" unicode="&#xc0;" horiz-adv-x="489" 
d="M368 0l-39 127h-175l-39 -127h-104l227 686h13l227 -686h-110zM217 330l-36 -116h121l-34 116q-22 73 -25 99q-18 -73 -26 -99zM205 729l-64 142h109l31 -142h-76z" />
    <glyph glyph-name="Aacute" unicode="&#xc1;" horiz-adv-x="489" 
d="M368 0l-39 127h-175l-39 -127h-104l227 686h13l227 -686h-110zM217 330l-36 -116h121l-34 116q-22 73 -25 99q-18 -73 -26 -99zM205 729l31 142h109l-64 -142h-76z" />
    <glyph glyph-name="Acircumflex" unicode="&#xc2;" horiz-adv-x="489" 
d="M368 0l-39 127h-175l-39 -127h-104l227 686h13l227 -686h-110zM217 330l-36 -116h121l-34 116q-22 73 -25 99q-18 -73 -26 -99zM134 727l107 151h7l107 -151h-81l-30 40l-31 -40h-79z" />
    <glyph glyph-name="Atilde" unicode="&#xc3;" horiz-adv-x="489" 
d="M368 0l-39 127h-175l-39 -127h-104l227 686h13l227 -686h-110zM217 330l-36 -116h121l-34 116q-22 73 -25 99q-18 -73 -26 -99zM191 740l-65 5q11 102 76 102q18 0 43 -12t31 -12q19 0 21 26l65 -5q-5 -49 -25 -75.5t-51 -26.5q-18 0 -43 12t-31 12q-19 0 -21 -26z" />
    <glyph glyph-name="Adieresis" unicode="&#xc4;" horiz-adv-x="489" 
d="M368 0l-39 127h-175l-39 -127h-104l227 686h13l227 -686h-110zM217 330l-36 -116h121l-34 116q-22 73 -25 99q-18 -73 -26 -99zM316 727q-21 0 -37.5 16t-16.5 38t16.5 38t37.5 16t37.5 -16t16.5 -38t-16.5 -38t-37.5 -16zM174 727q-21 0 -37.5 16t-16.5 38t16.5 38
t37.5 16t37.5 -16t16.5 -38t-16.5 -38t-37.5 -16z" />
    <glyph glyph-name="Aring" unicode="&#xc5;" horiz-adv-x="489" 
d="M368 0l-39 127h-175l-39 -127h-104l227 686h13l227 -686h-110zM217 330l-36 -116h121l-34 116q-22 73 -25 99q-18 -73 -26 -99zM245 722q-34 0 -59.5 24t-25.5 56q0 33 25 57t60 24t60 -24t25 -57q0 -32 -25.5 -56t-59.5 -24zM245 771q13 0 21.5 8t8.5 23t-8.5 23.5
t-21.5 8.5t-21.5 -8.5t-8.5 -23.5t8.5 -23t21.5 -8z" />
    <glyph glyph-name="AE" unicode="&#xc6;" horiz-adv-x="685" 
d="M5 0l327 680h312v-92h-221v-199h186v-92h-186v-205h229v-92h-333v85h-170l-40 -85h-104zM272 346l-82 -174h129l1 164q0 27 1 59.5t2 54.5l1 21q-25 -68 -52 -125z" />
    <glyph glyph-name="Ccedilla" unicode="&#xc7;" horiz-adv-x="451" 
d="M243 -174q-32 0 -52 13l22 47q9 -7 24 -7q26 0 26 21v3q0 20 -25 20h-18v77q-90 25 -140 111t-50 220v18q0 158 71.5 248.5t197.5 90.5q70 0 123 -35l-43 -84q-42 24 -79 24q-78 0 -120.5 -65t-42.5 -182v-12q0 -118 42.5 -183.5t121.5 -65.5q40 0 87 28l43 -82
q-60 -40 -140 -40q-9 0 -21 1v-27q54 -10 54 -64v-4q0 -33 -23 -52t-58 -19z" />
    <glyph glyph-name="Egrave" unicode="&#xc8;" horiz-adv-x="420" 
d="M54 0v680h325v-92h-221v-199h186v-92h-186v-205h229v-92h-333zM183 729l-64 142h109l31 -142h-76z" />
    <glyph glyph-name="Eacute" unicode="&#xc9;" horiz-adv-x="420" 
d="M54 0v680h325v-92h-221v-199h186v-92h-186v-205h229v-92h-333zM183 729l31 142h109l-64 -142h-76z" />
    <glyph glyph-name="Ecircumflex" unicode="&#xca;" horiz-adv-x="420" 
d="M54 0v680h325v-92h-221v-199h186v-92h-186v-205h229v-92h-333zM112 727l107 151h7l107 -151h-81l-30 40l-31 -40h-79z" />
    <glyph glyph-name="Edieresis" unicode="&#xcb;" horiz-adv-x="420" 
d="M54 0v680h325v-92h-221v-199h186v-92h-186v-205h229v-92h-333zM294 727q-21 0 -37.5 16t-16.5 38t16.5 38t37.5 16t37.5 -16t16.5 -38t-16.5 -38t-37.5 -16zM152 727q-21 0 -37.5 16t-16.5 38t16.5 38t37.5 16t37.5 -16t16.5 -38t-16.5 -38t-37.5 -16z" />
    <glyph glyph-name="Igrave" unicode="&#xcc;" horiz-adv-x="219" 
d="M57 0v680h105v-680h-105zM70 729l-64 142h109l31 -142h-76z" />
    <glyph glyph-name="Iacute" unicode="&#xcd;" horiz-adv-x="219" 
d="M57 0v680h105v-680h-105zM70 729l31 142h109l-64 -142h-76z" />
    <glyph glyph-name="Icircumflex" unicode="&#xce;" horiz-adv-x="219" 
d="M57 0v680h105v-680h-105zM-1 727l107 151h7l107 -151h-81l-30 40l-31 -40h-79z" />
    <glyph glyph-name="Idieresis" unicode="&#xcf;" horiz-adv-x="219" 
d="M57 0v680h105v-680h-105zM181 727q-21 0 -37.5 16t-16.5 38t16.5 38t37.5 16t37.5 -16t16.5 -38t-16.5 -38t-37.5 -16zM39 727q-21 0 -37.5 16t-16.5 38t16.5 38t37.5 16t37.5 -16t16.5 -38t-16.5 -38t-37.5 -16z" />
    <glyph glyph-name="Eth" unicode="&#xd0;" horiz-adv-x="510" 
d="M10 297v92h44v291h143q132 0 208.5 -89t76.5 -243v-16q0 -152 -76.5 -242t-208.5 -90h-143v297h-44zM159 92h32q86 0 134.5 64t48.5 179v10q0 243 -183 243h-32v-199h119v-92h-119v-205z" />
    <glyph glyph-name="Ntilde" unicode="&#xd1;" horiz-adv-x="503" 
d="M436 -6l-237 337q-37 50 -49 74l1 -17q1 -17 1.5 -40t0.5 -38v-310h-99v686h13l237 -341q17 -25 49 -78l-1 7v17.5t-0.5 23l-1 26t-0.5 24.5v315h99v-686h-13zM189 740l-65 5q11 102 76 102q18 0 43 -12t31 -12q19 0 21 26l65 -5q-5 -49 -25 -75.5t-51 -26.5
q-18 0 -43 12t-31 12q-19 0 -21 -26z" />
    <glyph glyph-name="Ograve" unicode="&#xd2;" horiz-adv-x="550" 
d="M275 -9q-111 0 -178.5 90.5t-67.5 249.5v18q0 159 67.5 249t178.5 90t178.5 -90t67.5 -249v-18q0 -159 -67.5 -249.5t-178.5 -90.5zM275 86q64 0 101 64t37 184v12q0 120 -37 184t-101 64t-101.5 -64t-37.5 -184v-12q0 -120 37.5 -184t101.5 -64zM234 729l-64 142h109
l31 -142h-76z" />
    <glyph glyph-name="Oacute" unicode="&#xd3;" horiz-adv-x="550" 
d="M275 -9q-111 0 -178.5 90.5t-67.5 249.5v18q0 159 67.5 249t178.5 90t178.5 -90t67.5 -249v-18q0 -159 -67.5 -249.5t-178.5 -90.5zM275 86q64 0 101 64t37 184v12q0 120 -37 184t-101 64t-101.5 -64t-37.5 -184v-12q0 -120 37.5 -184t101.5 -64zM234 729l31 142h109
l-64 -142h-76z" />
    <glyph glyph-name="Ocircumflex" unicode="&#xd4;" horiz-adv-x="550" 
d="M275 -9q-111 0 -178.5 90.5t-67.5 249.5v18q0 159 67.5 249t178.5 90t178.5 -90t67.5 -249v-18q0 -159 -67.5 -249.5t-178.5 -90.5zM275 86q64 0 101 64t37 184v12q0 120 -37 184t-101 64t-101.5 -64t-37.5 -184v-12q0 -120 37.5 -184t101.5 -64zM163 727l107 151h7
l107 -151h-81l-30 40l-31 -40h-79z" />
    <glyph glyph-name="Otilde" unicode="&#xd5;" horiz-adv-x="550" 
d="M275 -9q-111 0 -178.5 90.5t-67.5 249.5v18q0 159 67.5 249t178.5 90t178.5 -90t67.5 -249v-18q0 -159 -67.5 -249.5t-178.5 -90.5zM275 86q64 0 101 64t37 184v12q0 120 -37 184t-101 64t-101.5 -64t-37.5 -184v-12q0 -120 37.5 -184t101.5 -64zM220 740l-65 5
q11 102 76 102q18 0 43 -12t31 -12q19 0 21 26l65 -5q-5 -49 -25 -75.5t-51 -26.5q-18 0 -43 12t-31 12q-19 0 -21 -26z" />
    <glyph glyph-name="Odieresis" unicode="&#xd6;" horiz-adv-x="550" 
d="M275 -9q-111 0 -178.5 90.5t-67.5 249.5v18q0 159 67.5 249t178.5 90t178.5 -90t67.5 -249v-18q0 -159 -67.5 -249.5t-178.5 -90.5zM275 86q64 0 101 64t37 184v12q0 120 -37 184t-101 64t-101.5 -64t-37.5 -184v-12q0 -120 37.5 -184t101.5 -64zM345 727q-21 0 -37.5 16
t-16.5 38t16.5 38t37.5 16t37.5 -16t16.5 -38t-16.5 -38t-37.5 -16zM203 727q-21 0 -37.5 16t-16.5 38t16.5 38t37.5 16t37.5 -16t16.5 -38t-16.5 -38t-37.5 -16z" />
    <glyph glyph-name="multiply" unicode="&#xd7;" horiz-adv-x="327" 
d="M91 124l-63 63l73 79l-73 80l63 63l73 -80l72 80l63 -63l-74 -80l74 -79l-63 -63l-73 80z" />
    <glyph glyph-name="Oslash" unicode="&#xd8;" horiz-adv-x="550" 
d="M94 -18l-69 40l54 85q-50 87 -50 224v18q0 159 67.5 249t178.5 90q82 0 142 -51l39 60l69 -40l-55 -85q51 -89 51 -223v-18q0 -159 -67.5 -249.5t-178.5 -90.5q-84 0 -143 51zM136 334q0 -73 11 -120l216 338q-33 42 -88 42q-64 0 -101.5 -64t-37.5 -184v-12zM275 86
q64 0 101 64t37 184v12q0 68 -12 117l-214 -336q33 -41 88 -41z" />
    <glyph glyph-name="Ugrave" unicode="&#xd9;" horiz-adv-x="504" 
d="M252 -9q-92 0 -146.5 53.5t-54.5 155.5v480h105v-478q0 -56 25 -85.5t71 -29.5t71 29.5t25 85.5v478h105v-480q0 -102 -54.5 -155.5t-146.5 -53.5zM212 729l-64 142h109l31 -142h-76z" />
    <glyph glyph-name="Uacute" unicode="&#xda;" horiz-adv-x="504" 
d="M252 -9q-92 0 -146.5 53.5t-54.5 155.5v480h105v-478q0 -56 25 -85.5t71 -29.5t71 29.5t25 85.5v478h105v-480q0 -102 -54.5 -155.5t-146.5 -53.5zM212 729l31 142h109l-64 -142h-76z" />
    <glyph glyph-name="Ucircumflex" unicode="&#xdb;" horiz-adv-x="504" 
d="M252 -9q-92 0 -146.5 53.5t-54.5 155.5v480h105v-478q0 -56 25 -85.5t71 -29.5t71 29.5t25 85.5v478h105v-480q0 -102 -54.5 -155.5t-146.5 -53.5zM141 727l107 151h7l107 -151h-81l-30 40l-31 -40h-79z" />
    <glyph glyph-name="Udieresis" unicode="&#xdc;" horiz-adv-x="504" 
d="M252 -9q-92 0 -146.5 53.5t-54.5 155.5v480h105v-478q0 -56 25 -85.5t71 -29.5t71 29.5t25 85.5v478h105v-480q0 -102 -54.5 -155.5t-146.5 -53.5zM323 727q-21 0 -37.5 16t-16.5 38t16.5 38t37.5 16t37.5 -16t16.5 -38t-16.5 -38t-37.5 -16zM181 727q-21 0 -37.5 16
t-16.5 38t16.5 38t37.5 16t37.5 -16t16.5 -38t-16.5 -38t-37.5 -16z" />
    <glyph glyph-name="Yacute" unicode="&#xdd;" horiz-adv-x="465" 
d="M181 0v264l-173 416h107l87 -218q12 -32 34 -98q7 31 33 98l85 218h103l-171 -415v-265h-105zM204 729l31 142h109l-64 -142h-76z" />
    <glyph glyph-name="Thorn" unicode="&#xde;" horiz-adv-x="448" 
d="M54 0v680h105v-115h45q103 0 162 -56t59 -152v-9q0 -99 -60 -159t-162 -60h-44v-129h-105zM159 221h42q59 0 89 33.5t30 90.5v7q0 121 -119 121h-42v-252z" />
    <glyph glyph-name="germandbls" unicode="&#xdf;" horiz-adv-x="365" 
d="M247 -8q-57 0 -96 27l39 68q24 -17 46 -17q32 0 32 24v5q0 12 -9 22.5t-45 44.5q-49 46 -49 110v4q0 28 21 100l45 155q7 24 7 44q0 29 -15 43t-38 14q-27 0 -43 -18t-16 -54v-564h-97v564q0 78 43.5 116t110.5 38t107.5 -34t39.5 -100q0 -33 -11 -69l-46 -141
q-20 -61 -20 -88v-3q0 -28 34 -59q38 -36 54.5 -60t16.5 -59v-8q0 -48 -29 -76.5t-82 -28.5z" />
    <glyph glyph-name="agrave" unicode="&#xe0;" horiz-adv-x="304" 
d="M110 -9q-43 0 -69.5 29t-26.5 83v5q0 51 33.5 79t92.5 28h39v18q0 48 -46 48q-36 0 -65 -24l-46 67q48 40 126 40q128 0 128 -130v-234h-97v29q-25 -38 -69 -38zM141 67q38 0 38 47v33h-34q-36 0 -36 -38v-4q0 -38 32 -38zM117 419l-64 142h109l31 -142h-76z" />
    <glyph glyph-name="aacute" unicode="&#xe1;" horiz-adv-x="304" 
d="M110 -9q-43 0 -69.5 29t-26.5 83v5q0 51 33.5 79t92.5 28h39v18q0 48 -46 48q-36 0 -65 -24l-46 67q48 40 126 40q128 0 128 -130v-234h-97v29q-25 -38 -69 -38zM141 67q38 0 38 47v33h-34q-36 0 -36 -38v-4q0 -38 32 -38zM117 419l31 142h109l-64 -142h-76z" />
    <glyph glyph-name="acircumflex" unicode="&#xe2;" horiz-adv-x="304" 
d="M110 -9q-43 0 -69.5 29t-26.5 83v5q0 51 33.5 79t92.5 28h39v18q0 48 -46 48q-36 0 -65 -24l-46 67q48 40 126 40q128 0 128 -130v-234h-97v29q-25 -38 -69 -38zM141 67q38 0 38 47v33h-34q-36 0 -36 -38v-4q0 -38 32 -38zM46 422l107 151h7l107 -151h-81l-30 40l-31 -40
h-79z" />
    <glyph glyph-name="atilde" unicode="&#xe3;" horiz-adv-x="304" 
d="M110 -9q-43 0 -69.5 29t-26.5 83v5q0 51 33.5 79t92.5 28h39v18q0 48 -46 48q-36 0 -65 -24l-46 67q48 40 126 40q128 0 128 -130v-234h-97v29q-25 -38 -69 -38zM141 67q38 0 38 47v33h-34q-36 0 -36 -38v-4q0 -38 32 -38zM103 415l-65 5q11 102 76 102q18 0 43 -12
t31 -12q19 0 21 26l65 -5q-5 -49 -25 -75.5t-51 -26.5q-18 0 -43 12t-31 12q-19 0 -21 -26z" />
    <glyph glyph-name="adieresis" unicode="&#xe4;" horiz-adv-x="304" 
d="M110 -9q-43 0 -69.5 29t-26.5 83v5q0 51 33.5 79t92.5 28h39v18q0 48 -46 48q-36 0 -65 -24l-46 67q48 40 126 40q128 0 128 -130v-234h-97v29q-25 -38 -69 -38zM141 67q38 0 38 47v33h-34q-36 0 -36 -38v-4q0 -38 32 -38zM228 422q-21 0 -37.5 16t-16.5 38t16.5 38
t37.5 16t37.5 -16t16.5 -38t-16.5 -38t-37.5 -16zM86 422q-21 0 -37.5 16t-16.5 38t16.5 38t37.5 16t37.5 -16t16.5 -38t-16.5 -38t-37.5 -16z" />
    <glyph glyph-name="aring" unicode="&#xe5;" horiz-adv-x="304" 
d="M153 397q-34 0 -59.5 24t-25.5 56q0 33 25 57t60 24t60 -24t25 -57q0 -32 -25.5 -56t-59.5 -24zM153 446q13 0 21.5 8t8.5 23t-8.5 23.5t-21.5 8.5t-21.5 -8.5t-8.5 -23.5t8.5 -23t21.5 -8zM110 -9q-43 0 -69.5 29t-26.5 83v5q0 51 33.5 79t92.5 28h39v18q0 48 -46 48
q-36 0 -65 -24l-46 67q48 40 126 40q128 0 128 -130v-234h-97v29q-25 -38 -69 -38zM141 67q38 0 38 47v33h-34q-36 0 -36 -38v-4q0 -38 32 -38z" />
    <glyph glyph-name="ae" unicode="&#xe6;" horiz-adv-x="489" 
d="M133 -9q-119 0 -119 112v5q0 51 33.5 78.5t92.5 27.5h39v19q0 48 -46 48q-36 0 -65 -24l-46 67q48 40 126 40q63 0 87 -43q32 43 94 43q70 0 106.5 -49.5t36.5 -133.5v-35h-195q7 -70 70 -70q38 0 71 21l38 -76q-46 -30 -110 -30q-80 0 -115 49q-33 -49 -98 -49zM329 284
q-44 0 -52 -71h97q-4 71 -45 71zM141 67q38 0 38 47v32h-34q-36 0 -36 -37v-4q0 -38 32 -38z" />
    <glyph glyph-name="ccedilla" unicode="&#xe7;" horiz-adv-x="275" 
d="M134 -174q-32 0 -52 13l22 47q9 -7 24 -7q26 0 26 21v3q0 20 -25 20h-18v80q-92 38 -92 169v11q0 84 43.5 132.5t113.5 48.5q51 0 88 -24l-38 -75q-21 12 -41 12q-28 0 -47 -24.5t-19 -69.5v-10q0 -46 18 -70.5t51 -24.5q19 0 43 13l33 -78q-29 -22 -84 -22q-9 0 -19 1
v-27q54 -10 54 -64v-4q0 -33 -23 -52t-58 -19z" />
    <glyph glyph-name="egrave" unicode="&#xe8;" 
d="M187 -9q-83 0 -126 48t-43 134v9q0 83 41.5 132.5t110.5 49.5q70 0 106.5 -49.5t36.5 -133.5v-38h-194q7 -67 69 -67q38 0 71 21l38 -76q-46 -30 -110 -30zM170 284q-44 0 -52 -71h97q-4 71 -45 71zM129 419l-64 142h109l31 -142h-76z" />
    <glyph glyph-name="eacute" unicode="&#xe9;" 
d="M187 -9q-83 0 -126 48t-43 134v9q0 83 41.5 132.5t110.5 49.5q70 0 106.5 -49.5t36.5 -133.5v-38h-194q7 -67 69 -67q38 0 71 21l38 -76q-46 -30 -110 -30zM170 284q-44 0 -52 -71h97q-4 71 -45 71zM129 419l31 142h109l-64 -142h-76z" />
    <glyph glyph-name="ecircumflex" unicode="&#xea;" 
d="M187 -9q-83 0 -126 48t-43 134v9q0 83 41.5 132.5t110.5 49.5q70 0 106.5 -49.5t36.5 -133.5v-38h-194q7 -67 69 -67q38 0 71 21l38 -76q-46 -30 -110 -30zM170 284q-44 0 -52 -71h97q-4 71 -45 71zM58 422l107 151h7l107 -151h-81l-30 40l-31 -40h-79z" />
    <glyph glyph-name="edieresis" unicode="&#xeb;" 
d="M187 -9q-83 0 -126 48t-43 134v9q0 83 41.5 132.5t110.5 49.5q70 0 106.5 -49.5t36.5 -133.5v-38h-194q7 -67 69 -67q38 0 71 21l38 -76q-46 -30 -110 -30zM170 284q-44 0 -52 -71h97q-4 71 -45 71zM240 422q-21 0 -37.5 16t-16.5 38t16.5 38t37.5 16t37.5 -16t16.5 -38
t-16.5 -38t-37.5 -16zM98 422q-21 0 -37.5 16t-16.5 38t16.5 38t37.5 16t37.5 -16t16.5 -38t-16.5 -38t-37.5 -16z" />
    <glyph glyph-name="igrave" unicode="&#xec;" horiz-adv-x="159" 
d="M30 0v355h97v-355h-97zM39 419l-64 142h109l31 -142h-76z" />
    <glyph glyph-name="iacute" unicode="&#xed;" horiz-adv-x="159" 
d="M30 0v355h97v-355h-97zM39 419l31 142h109l-64 -142h-76z" />
    <glyph glyph-name="icircumflex" unicode="&#xee;" horiz-adv-x="159" 
d="M30 0v355h97v-355h-97zM-32 422l107 151h7l107 -151h-81l-30 40l-31 -40h-79z" />
    <glyph glyph-name="idieresis" unicode="&#xef;" horiz-adv-x="159" 
d="M30 0v355h97v-355h-97zM150 422q-21 0 -37.5 16t-16.5 38t16.5 38t37.5 16t37.5 -16t16.5 -38t-16.5 -38t-37.5 -16zM8 422q-21 0 -37.5 16t-16.5 38t16.5 38t37.5 16t37.5 -16t16.5 -38t-16.5 -38t-37.5 -16z" />
    <glyph glyph-name="eth" unicode="&#xf0;" horiz-adv-x="349" 
d="M94 475l-36 48l57 41q-28 37 -78 83l43 58q61 -39 108 -89l53 39l36 -48l-51 -37q103 -142 103 -351v-28q0 -98 -41.5 -149t-113.5 -51q-71 0 -113.5 48t-42.5 132v13q0 81 38 130.5t90 49.5q45 0 72 -36q-19 105 -68 187zM173 74q55 0 55 98v12q0 97 -55 97t-55 -97v-12
q0 -98 55 -98z" />
    <glyph glyph-name="ntilde" unicode="&#xf1;" horiz-adv-x="336" 
d="M29 0v355h97v-40q29 49 87 49q44 0 71 -32t27 -91v-241h-97v230q0 21 -11 32.5t-29 11.5q-48 0 -48 -51v-223h-97zM123 415l-65 5q11 102 76 102q18 0 43 -12t31 -12q19 0 21 26l65 -5q-5 -49 -25 -75.5t-51 -26.5q-18 0 -43 12t-31 12q-19 0 -21 -26z" />
    <glyph glyph-name="ograve" unicode="&#xf2;" horiz-adv-x="347" 
d="M174 -9q-71 0 -113.5 48t-42.5 132v13q0 84 42.5 132t113.5 48t113 -48t42 -132v-13q0 -84 -42 -132t-113 -48zM173 74q55 0 55 98v12q0 97 -55 97t-55 -97v-12q0 -98 55 -98zM134 419l-64 142h109l31 -142h-76z" />
    <glyph glyph-name="oacute" unicode="&#xf3;" horiz-adv-x="347" 
d="M174 -9q-71 0 -113.5 48t-42.5 132v13q0 84 42.5 132t113.5 48t113 -48t42 -132v-13q0 -84 -42 -132t-113 -48zM173 74q55 0 55 98v12q0 97 -55 97t-55 -97v-12q0 -98 55 -98zM134 419l31 142h109l-64 -142h-76z" />
    <glyph glyph-name="ocircumflex" unicode="&#xf4;" horiz-adv-x="347" 
d="M174 -9q-71 0 -113.5 48t-42.5 132v13q0 84 42.5 132t113.5 48t113 -48t42 -132v-13q0 -84 -42 -132t-113 -48zM173 74q55 0 55 98v12q0 97 -55 97t-55 -97v-12q0 -98 55 -98zM63 422l107 151h7l107 -151h-81l-30 40l-31 -40h-79z" />
    <glyph glyph-name="otilde" unicode="&#xf5;" horiz-adv-x="347" 
d="M174 -9q-71 0 -113.5 48t-42.5 132v13q0 84 42.5 132t113.5 48t113 -48t42 -132v-13q0 -84 -42 -132t-113 -48zM173 74q55 0 55 98v12q0 97 -55 97t-55 -97v-12q0 -98 55 -98zM120 415l-65 5q11 102 76 102q18 0 43 -12t31 -12q19 0 21 26l65 -5q-5 -49 -25 -75.5
t-51 -26.5q-18 0 -43 12t-31 12q-19 0 -21 -26z" />
    <glyph glyph-name="odieresis" unicode="&#xf6;" horiz-adv-x="347" 
d="M174 -9q-71 0 -113.5 48t-42.5 132v13q0 84 42.5 132t113.5 48t113 -48t42 -132v-13q0 -84 -42 -132t-113 -48zM173 74q55 0 55 98v12q0 97 -55 97t-55 -97v-12q0 -98 55 -98zM245 422q-21 0 -37.5 16t-16.5 38t16.5 38t37.5 16t37.5 -16t16.5 -38t-16.5 -38t-37.5 -16z
M103 422q-21 0 -37.5 16t-16.5 38t16.5 38t37.5 16t37.5 -16t16.5 -38t-16.5 -38t-37.5 -16z" />
    <glyph glyph-name="divide" unicode="&#xf7;" horiz-adv-x="325" 
d="M33 238v87h259v-87h-259zM163 354q-24 0 -41.5 17t-17.5 42t17.5 41.5t41.5 16.5t41 -16.5t17 -41.5t-17 -42t-41 -17zM163 91q-24 0 -41.5 17t-17.5 42t17.5 41.5t41.5 16.5t41 -16.5t17 -41.5t-17 -42t-41 -17z" />
    <glyph glyph-name="oslash" unicode="&#xf8;" horiz-adv-x="346" 
d="M63 -35l-50 33l37 54q-32 48 -32 119v13q0 84 42.5 132t113.5 48q42 0 77 -19l26 37l50 -33l-31 -45q33 -47 33 -120v-13q0 -84 -42 -132t-113 -48q-45 0 -80 20zM173 70q60 0 60 100v16q0 17 -1 25l-91 -132q13 -9 32 -9zM113 170q0 -18 1 -25l90 130q-13 10 -31 10
q-60 0 -60 -99v-16z" />
    <glyph glyph-name="ugrave" unicode="&#xf9;" horiz-adv-x="337" 
d="M124 -9q-44 0 -71 32t-27 92v240h97v-230q0 -21 11 -32.5t29 -11.5q48 0 48 52v222h97v-355h-97v41q-29 -50 -87 -50zM128 419l-64 142h109l31 -142h-76z" />
    <glyph glyph-name="uacute" unicode="&#xfa;" horiz-adv-x="337" 
d="M124 -9q-44 0 -71 32t-27 92v240h97v-230q0 -21 11 -32.5t29 -11.5q48 0 48 52v222h97v-355h-97v41q-29 -50 -87 -50zM128 419l31 142h109l-64 -142h-76z" />
    <glyph glyph-name="ucircumflex" unicode="&#xfb;" horiz-adv-x="337" 
d="M124 -9q-44 0 -71 32t-27 92v240h97v-230q0 -21 11 -32.5t29 -11.5q48 0 48 52v222h97v-355h-97v41q-29 -50 -87 -50zM57 422l107 151h7l107 -151h-81l-30 40l-31 -40h-79z" />
    <glyph glyph-name="udieresis" unicode="&#xfc;" horiz-adv-x="337" 
d="M124 -9q-44 0 -71 32t-27 92v240h97v-230q0 -21 11 -32.5t29 -11.5q48 0 48 52v222h97v-355h-97v41q-29 -50 -87 -50zM239 422q-21 0 -37.5 16t-16.5 38t16.5 38t37.5 16t37.5 -16t16.5 -38t-16.5 -38t-37.5 -16zM97 422q-21 0 -37.5 16t-16.5 38t16.5 38t37.5 16
t37.5 -16t16.5 -38t-16.5 -38t-37.5 -16z" />
    <glyph glyph-name="yacute" unicode="&#xfd;" horiz-adv-x="317" 
d="M41 -205l79 241l-118 319h100l44 -134q10 -32 19 -70q16 64 18 70l42 134h90l-183 -560h-91zM125 419l31 142h109l-64 -142h-76z" />
    <glyph glyph-name="thorn" unicode="&#xfe;" horiz-adv-x="354" 
d="M30 -212v913h97v-381q25 44 84 44q53 0 89 -46t36 -135v-11q0 -89 -36.5 -135t-89.5 -46q-54 0 -83 45v-248h-97zM180 75q56 0 56 98v9q0 98 -56 98q-26 0 -40.5 -25.5t-14.5 -72.5v-9q0 -47 14.5 -72.5t40.5 -25.5z" />
    <glyph glyph-name="ydieresis" unicode="&#xff;" horiz-adv-x="317" 
d="M41 -205l79 241l-118 319h100l44 -134q10 -32 19 -70q16 64 18 70l42 134h90l-183 -560h-91zM236 422q-21 0 -37.5 16t-16.5 38t16.5 38t37.5 16t37.5 -16t16.5 -38t-16.5 -38t-37.5 -16zM94 422q-21 0 -37.5 16t-16.5 38t16.5 38t37.5 16t37.5 -16t16.5 -38t-16.5 -38
t-37.5 -16z" />
    <glyph glyph-name="Amacron" unicode="&#x100;" horiz-adv-x="489" 
d="M368 0l-39 127h-175l-39 -127h-104l227 686h13l227 -686h-110zM217 330l-36 -116h121l-34 116q-22 73 -25 99q-18 -73 -26 -99zM155 733v79h180v-79h-180z" />
    <glyph glyph-name="amacron" unicode="&#x101;" horiz-adv-x="304" 
d="M110 -9q-43 0 -69.5 29t-26.5 83v5q0 51 33.5 79t92.5 28h39v18q0 48 -46 48q-36 0 -65 -24l-46 67q48 40 126 40q128 0 128 -130v-234h-97v29q-25 -38 -69 -38zM141 67q38 0 38 47v33h-34q-36 0 -36 -38v-4q0 -38 32 -38zM67 438v79h180v-79h-180z" />
    <glyph glyph-name="Abreve" unicode="&#x102;" horiz-adv-x="489" 
d="M368 0l-39 127h-175l-39 -127h-104l227 686h13l227 -686h-110zM217 330l-36 -116h121l-34 116q-22 73 -25 99q-18 -73 -26 -99zM245 720q-46 0 -74 28.5t-30 74.5l73 3q3 -33 31 -33t31 33l73 -3q-2 -46 -30 -74.5t-74 -28.5z" />
    <glyph glyph-name="abreve" unicode="&#x103;" horiz-adv-x="304" 
d="M110 -9q-43 0 -69.5 29t-26.5 83v5q0 51 33.5 79t92.5 28h39v18q0 48 -46 48q-36 0 -65 -24l-46 67q48 40 126 40q128 0 128 -130v-234h-97v29q-25 -38 -69 -38zM141 67q38 0 38 47v33h-34q-36 0 -36 -38v-4q0 -38 32 -38zM157 425q-46 0 -74 28.5t-30 74.5l73 3
q3 -33 31 -33t31 33l73 -3q-2 -46 -30 -74.5t-74 -28.5z" />
    <glyph glyph-name="Aogonek" unicode="&#x104;" horiz-adv-x="489" 
d="M413 -213q-41 0 -63.5 22t-22.5 60q0 63 68 131h-27l-39 127h-175l-39 -127h-104l227 686h13l225 -679q-64 -82 -64 -127q0 -20 18 -20q9 0 21 7l25 -61q-27 -19 -63 -19zM217 327l-36 -113h121l-34 113q-21 70 -25 99q-1 -2 -5 -19l-10 -40.5t-11 -39.5z" />
    <glyph glyph-name="aogonek" unicode="&#x105;" horiz-adv-x="304" 
d="M213 -213q-41 0 -63.5 22t-22.5 60q0 67 74 131h-22v29q-25 -38 -69 -38q-43 0 -69.5 29t-26.5 83v5q0 51 33.5 79t92.5 28h39v18q0 48 -46 48q-36 0 -65 -24l-46 67q48 40 126 40q128 0 128 -130v-226q-64 -85 -64 -128q0 -20 18 -20q9 0 21 7l25 -61q-27 -19 -63 -19z
M141 67q38 0 38 47v33h-34q-36 0 -36 -38v-4q0 -38 32 -38z" />
    <glyph glyph-name="Cacute" unicode="&#x106;" horiz-adv-x="449" 
d="M290 -9q-122 0 -191.5 90.5t-69.5 249.5v18q0 158 71.5 248.5t197.5 90.5q70 0 123 -35l-43 -84q-42 24 -79 24q-78 0 -120.5 -65t-42.5 -182v-12q0 -118 42.5 -183.5t121.5 -65.5q40 0 87 28l43 -82q-60 -40 -140 -40zM234 729l31 142h109l-64 -142h-76z" />
    <glyph glyph-name="cacute" unicode="&#x107;" horiz-adv-x="273" 
d="M179 -9q-77 0 -119 48t-42 133v11q0 84 43.5 132.5t113.5 48.5q51 0 88 -24l-38 -75q-21 12 -41 12q-28 0 -47 -24.5t-19 -69.5v-10q0 -46 18 -70.5t51 -24.5q19 0 43 13l33 -78q-29 -22 -84 -22zM117 419l31 142h109l-64 -142h-76z" />
    <glyph glyph-name="Ccircumflex" unicode="&#x108;" horiz-adv-x="449" 
d="M290 -9q-122 0 -191.5 90.5t-69.5 249.5v18q0 158 71.5 248.5t197.5 90.5q70 0 123 -35l-43 -84q-42 24 -79 24q-78 0 -120.5 -65t-42.5 -182v-12q0 -118 42.5 -183.5t121.5 -65.5q40 0 87 28l43 -82q-60 -40 -140 -40zM160 727l107 151h7l107 -151h-81l-30 40l-31 -40
h-79z" />
    <glyph glyph-name="ccircumflex" unicode="&#x109;" horiz-adv-x="273" 
d="M179 -9q-77 0 -119 48t-42 133v11q0 84 43.5 132.5t113.5 48.5q51 0 88 -24l-38 -75q-21 12 -41 12q-28 0 -47 -24.5t-19 -69.5v-10q0 -46 18 -70.5t51 -24.5q19 0 43 13l33 -78q-29 -22 -84 -22zM46 422l107 151h7l107 -151h-81l-30 40l-31 -40h-79z" />
    <glyph glyph-name="Cdotaccent" unicode="&#x10a;" horiz-adv-x="449" 
d="M290 -9q-122 0 -191.5 90.5t-69.5 249.5v18q0 158 71.5 248.5t197.5 90.5q70 0 123 -35l-43 -84q-42 24 -79 24q-78 0 -120.5 -65t-42.5 -182v-12q0 -118 42.5 -183.5t121.5 -65.5q40 0 87 28l43 -82q-60 -40 -140 -40zM281 727q-22 0 -39 16.5t-17 39.5q0 24 17 40
t39 16q24 0 40 -16t16 -40t-16.5 -40t-39.5 -16z" />
    <glyph glyph-name="cdotaccent" unicode="&#x10b;" horiz-adv-x="273" 
d="M179 -9q-77 0 -119 48t-42 133v11q0 84 43.5 132.5t113.5 48.5q51 0 88 -24l-38 -75q-21 12 -41 12q-28 0 -47 -24.5t-19 -69.5v-10q0 -46 18 -70.5t51 -24.5q19 0 43 13l33 -78q-29 -22 -84 -22zM164 422q-22 0 -39 16.5t-17 39.5q0 24 17 40t39 16q24 0 40 -16t16 -40
t-16.5 -40t-39.5 -16z" />
    <glyph glyph-name="Ccaron" unicode="&#x10c;" horiz-adv-x="449" 
d="M290 -9q-122 0 -191.5 90.5t-69.5 249.5v18q0 158 71.5 248.5t197.5 90.5q70 0 123 -35l-43 -84q-42 24 -79 24q-78 0 -120.5 -65t-42.5 -182v-12q0 -118 42.5 -183.5t121.5 -65.5q40 0 87 28l43 -82q-60 -40 -140 -40zM275 713l-107 151h81l30 -40l31 40h79l-107 -151
h-7z" />
    <glyph glyph-name="ccaron" unicode="&#x10d;" horiz-adv-x="273" 
d="M179 -9q-77 0 -119 48t-42 133v11q0 84 43.5 132.5t113.5 48.5q51 0 88 -24l-38 -75q-21 12 -41 12q-28 0 -47 -24.5t-19 -69.5v-10q0 -46 18 -70.5t51 -24.5q19 0 43 13l33 -78q-29 -22 -84 -22zM154 408l-107 151h81l30 -40l31 40h79l-107 -151h-7z" />
    <glyph glyph-name="Dcaron" unicode="&#x10e;" horiz-adv-x="510" 
d="M54 0v680h143q132 0 208.5 -89t76.5 -243v-16q0 -152 -76.5 -242t-208.5 -90h-143zM159 92h32q86 0 134.5 64t48.5 179v10q0 243 -183 243h-32v-496zM227 713l-107 151h81l30 -40l31 40h79l-107 -151h-7z" />
    <glyph glyph-name="dcaron" unicode="&#x10f;" horiz-adv-x="354" 
d="M144 -9q-53 0 -89.5 46t-36.5 135v11q0 89 36 135t89 46q59 0 84 -43v380h97v-701h-97v36q-29 -45 -83 -45zM174 75q26 0 40.5 25.5t14.5 72.5v9q0 47 -14.5 72.5t-40.5 25.5q-56 0 -56 -98v-9q0 -98 56 -98zM362 516l22 81q-32 13 -32 51q0 24 16.5 40.5t40.5 16.5
t40.5 -16.5t16.5 -40.5q0 -22 -17 -56l-39 -76h-48z" />
    <glyph glyph-name="Dcroat" unicode="&#x110;" horiz-adv-x="510" 
d="M10 297v92h44v291h143q132 0 208.5 -89t76.5 -243v-16q0 -152 -76.5 -242t-208.5 -90h-143v297h-44zM159 92h32q86 0 134.5 64t48.5 179v10q0 243 -183 243h-32v-199h119v-92h-119v-205z" />
    <glyph glyph-name="dcroat" unicode="&#x111;" horiz-adv-x="354" 
d="M155 551h72v150h97v-150h44v-79h-44v-472h-97v36q-29 -45 -83 -45q-53 0 -89.5 46t-36.5 135v11q0 89 36 135t89 46q59 0 84 -43v151h-72v79zM174 75q26 0 40.5 25.5t14.5 72.5v9q0 47 -14.5 72.5t-40.5 25.5q-56 0 -56 -98v-9q0 -98 56 -98z" />
    <glyph glyph-name="Emacron" unicode="&#x112;" horiz-adv-x="420" 
d="M54 0v680h325v-92h-221v-199h186v-92h-186v-205h229v-92h-333zM133 733v79h180v-79h-180z" />
    <glyph glyph-name="emacron" unicode="&#x113;" 
d="M187 -9q-83 0 -126 48t-43 134v9q0 83 41.5 132.5t110.5 49.5q70 0 106.5 -49.5t36.5 -133.5v-38h-194q7 -67 69 -67q38 0 71 21l38 -76q-46 -30 -110 -30zM170 284q-44 0 -52 -71h97q-4 71 -45 71zM79 438v79h180v-79h-180z" />
    <glyph glyph-name="Edotaccent" unicode="&#x116;" horiz-adv-x="420" 
d="M54 0v680h325v-92h-221v-199h186v-92h-186v-205h229v-92h-333zM223 727q-22 0 -39 16.5t-17 39.5q0 24 17 40t39 16q24 0 40 -16t16 -40t-16.5 -40t-39.5 -16z" />
    <glyph glyph-name="edotaccent" unicode="&#x117;" 
d="M187 -9q-83 0 -126 48t-43 134v9q0 83 41.5 132.5t110.5 49.5q70 0 106.5 -49.5t36.5 -133.5v-38h-194q7 -67 69 -67q38 0 71 21l38 -76q-46 -30 -110 -30zM170 284q-44 0 -52 -71h97q-4 71 -45 71zM169 422q-22 0 -39 16.5t-17 39.5q0 24 17 40t39 16q24 0 40 -16
t16 -40t-16.5 -40t-39.5 -16z" />
    <glyph glyph-name="Eogonek" unicode="&#x118;" horiz-adv-x="420" 
d="M54 0v680h325v-92h-221v-199h186v-92h-186v-205h229v-92h-26q-58 -79 -58 -120q0 -20 18 -20q9 0 21 7l25 -61q-27 -19 -63 -19q-41 0 -63.5 22t-22.5 60q0 64 67 131h-231z" />
    <glyph glyph-name="eogonek" unicode="&#x119;" 
d="M187 -9q-83 0 -126 48t-43 134v9q0 83 41.5 132.5t110.5 49.5q70 0 106.5 -49.5t36.5 -133.5v-38h-194q7 -67 69 -67q38 0 71 21l38 -76q-30 -20 -46 -43q-41 -59 -41 -98q0 -20 18 -20q9 0 21 7l25 -61q-27 -19 -63 -19q-41 0 -63.5 22t-22.5 60q0 63 63 122h-1z
M170 284q-44 0 -52 -71h97q-4 71 -45 71z" />
    <glyph glyph-name="Ecaron" unicode="&#x11a;" horiz-adv-x="420" 
d="M54 0v680h325v-92h-221v-199h186v-92h-186v-205h229v-92h-333zM220 713l-107 151h81l30 -40l31 40h79l-107 -151h-7z" />
    <glyph glyph-name="ecaron" unicode="&#x11b;" 
d="M187 -9q-83 0 -126 48t-43 134v9q0 83 41.5 132.5t110.5 49.5q70 0 106.5 -49.5t36.5 -133.5v-38h-194q7 -67 69 -67q38 0 71 21l38 -76q-46 -30 -110 -30zM170 284q-44 0 -52 -71h97q-4 71 -45 71zM166 408l-107 151h81l30 -40l31 40h79l-107 -151h-7z" />
    <glyph glyph-name="Gcircumflex" unicode="&#x11c;" horiz-adv-x="504" 
d="M305 -9q-135 0 -205.5 89t-70.5 248v24q0 153 69.5 244.5t197.5 91.5q92 0 149 -42l-44 -85q-46 32 -102 32q-79 0 -121 -65t-42 -179v-18q0 -118 40 -183t122 -65q39 0 75 18v167h-108v92h202v-318q-74 -51 -162 -51zM162 727l107 151h7l107 -151h-81l-30 40l-31 -40
h-79z" />
    <glyph glyph-name="gcircumflex" unicode="&#x11d;" horiz-adv-x="354" 
d="M158 -215q-87 0 -138 56l57 68q21 -20 36.5 -28t41.5 -8q72 0 72 83v80q-29 -45 -83 -45q-53 0 -89.5 45.5t-36.5 133.5v15q0 88 36 133.5t89 45.5q59 0 84 -43v34h97v-401q0 -84 -44.5 -126.5t-121.5 -42.5zM174 75q55 0 55 96v13q0 96 -55 96q-56 0 -56 -96v-13
q0 -96 56 -96zM61 422l107 151h7l107 -151h-81l-30 40l-31 -40h-79z" />
    <glyph glyph-name="Gbreve" unicode="&#x11e;" horiz-adv-x="504" 
d="M305 -9q-135 0 -205.5 89t-70.5 248v24q0 153 69.5 244.5t197.5 91.5q92 0 149 -42l-44 -85q-46 32 -102 32q-79 0 -121 -65t-42 -179v-18q0 -118 40 -183t122 -65q39 0 75 18v167h-108v92h202v-318q-74 -51 -162 -51zM273 720q-46 0 -74 28.5t-30 74.5l73 3
q3 -33 31 -33t31 33l73 -3q-2 -46 -30 -74.5t-74 -28.5z" />
    <glyph glyph-name="gbreve" unicode="&#x11f;" horiz-adv-x="354" 
d="M158 -215q-87 0 -138 56l57 68q21 -20 36.5 -28t41.5 -8q72 0 72 83v80q-29 -45 -83 -45q-53 0 -89.5 45.5t-36.5 133.5v15q0 88 36 133.5t89 45.5q59 0 84 -43v34h97v-401q0 -84 -44.5 -126.5t-121.5 -42.5zM174 75q55 0 55 96v13q0 96 -55 96q-56 0 -56 -96v-13
q0 -96 56 -96zM172 425q-46 0 -74 28.5t-30 74.5l73 3q3 -33 31 -33t31 33l73 -3q-2 -46 -30 -74.5t-74 -28.5z" />
    <glyph glyph-name="Gdotaccent" unicode="&#x120;" horiz-adv-x="504" 
d="M305 -9q-135 0 -205.5 89t-70.5 248v24q0 153 69.5 244.5t197.5 91.5q92 0 149 -42l-44 -85q-46 32 -102 32q-79 0 -121 -65t-42 -179v-18q0 -118 40 -183t122 -65q39 0 75 18v167h-108v92h202v-318q-74 -51 -162 -51zM283 727q-22 0 -39 16.5t-17 39.5q0 24 17 40t39 16
q24 0 40 -16t16 -40t-16.5 -40t-39.5 -16z" />
    <glyph glyph-name="gdotaccent" unicode="&#x121;" horiz-adv-x="354" 
d="M158 -215q-87 0 -138 56l57 68q21 -20 36.5 -28t41.5 -8q72 0 72 83v80q-29 -45 -83 -45q-53 0 -89.5 45.5t-36.5 133.5v15q0 88 36 133.5t89 45.5q59 0 84 -43v34h97v-401q0 -84 -44.5 -126.5t-121.5 -42.5zM174 75q55 0 55 96v13q0 96 -55 96q-56 0 -56 -96v-13
q0 -96 56 -96zM173 422q-22 0 -39 16.5t-17 39.5q0 24 17 40t39 16q24 0 40 -16t16 -40t-16.5 -40t-39.5 -16z" />
    <glyph glyph-name="Gcommaaccent" unicode="&#x122;" horiz-adv-x="504" 
d="M305 -9q-135 0 -205.5 89t-70.5 248v24q0 153 69.5 244.5t197.5 91.5q92 0 149 -42l-44 -85q-46 32 -102 32q-79 0 -121 -65t-42 -179v-18q0 -118 40 -183t122 -65q39 0 75 18v167h-108v92h202v-318q-74 -51 -162 -51zM240 -222l21 73q-36 15 -36 52q0 25 17 41.5
t41 16.5t41 -16.5t17 -41.5t-17 -57l-38 -68h-46z" />
    <glyph glyph-name="gcommaaccent" unicode="&#x123;" horiz-adv-x="354" 
d="M210 596l-21 -71q35 -13 35 -50q0 -23 -16.5 -39t-39.5 -16t-39.5 16t-16.5 39t16 55l37 66h45zM158 -215q-87 0 -138 56l57 68q21 -20 36.5 -28t41.5 -8q72 0 72 83v80q-29 -45 -83 -45q-53 0 -89.5 45.5t-36.5 133.5v15q0 88 36 133.5t89 45.5q59 0 84 -43v34h97v-401
q0 -84 -44.5 -126.5t-121.5 -42.5zM174 75q55 0 55 96v13q0 96 -55 96q-56 0 -56 -96v-13q0 -96 56 -96z" />
    <glyph glyph-name="Hcircumflex" unicode="&#x124;" horiz-adv-x="519" 
d="M54 0v680h105v-301h201v301h105v-680h-105v287h-201v-287h-105zM147 727l107 151h7l107 -151h-81l-30 40l-31 -40h-79z" />
    <glyph glyph-name="hcircumflex" unicode="&#x125;" horiz-adv-x="337" 
d="M29 0v701h97v-386q29 49 87 49q44 0 71 -32t27 -91v-241h-97v230q0 21 -11 32.5t-29 11.5q-48 0 -48 -51v-223h-97zM65 748l107 151h7l107 -151h-81l-30 40l-31 -40h-79z" />
    <glyph glyph-name="Hbar" unicode="&#x126;" horiz-adv-x="519" 
d="M4 471v80h50v129h105v-129h201v129h105v-129h50v-80h-50v-471h-105v287h-201v-287h-105v471h-50zM159 379h201v92h-201v-92z" />
    <glyph glyph-name="hbar" unicode="&#x127;" horiz-adv-x="337" 
d="M-15 472v79h44v150h97v-150h72v-79h-72v-157q29 49 87 49q44 0 71 -32t27 -91v-241h-97v230q0 21 -11 32.5t-29 11.5q-48 0 -48 -51v-223h-97v472h-44z" />
    <glyph glyph-name="Imacron" unicode="&#x12a;" horiz-adv-x="219" 
d="M57 0v680h105v-680h-105zM20 733v79h180v-79h-180z" />
    <glyph glyph-name="imacron" unicode="&#x12b;" horiz-adv-x="159" 
d="M30 0v355h97v-355h-97zM0 438v79h159v-79h-159z" />
    <glyph glyph-name="Iogonek" unicode="&#x12e;" horiz-adv-x="219" 
d="M57 0v680h105v-676q-61 -83 -61 -124q0 -20 18 -20q9 0 21 7l25 -61q-27 -19 -63 -19q-41 0 -63.5 22t-22.5 60q0 57 67 131h-26z" />
    <glyph glyph-name="iogonek" unicode="&#x12f;" horiz-adv-x="157" 
d="M30 0v355h97v-348q-50 -83 -50 -127q0 -20 18 -20q9 0 21 7l25 -61q-27 -19 -63 -19q-41 0 -63.5 22t-22.5 60q0 67 62 131h-24zM78 432q-22 0 -39 16.5t-17 39.5q0 24 17 40t39 16q24 0 40 -16t16 -40t-16.5 -40t-39.5 -16z" />
    <glyph glyph-name="Idotaccent" unicode="&#x130;" horiz-adv-x="219" 
d="M57 0v680h105v-680h-105zM110 727q-22 0 -39 16.5t-17 39.5q0 24 17 40t39 16q24 0 40 -16t16 -40t-16.5 -40t-39.5 -16z" />
    <glyph glyph-name="dotlessi" unicode="&#x131;" horiz-adv-x="157" 
d="M30 0v355h97v-355h-97z" />
    <glyph glyph-name="Jcircumflex" unicode="&#x134;" horiz-adv-x="374" 
d="M154 -8q-96 0 -148 64l67 68q33 -38 73 -38q70 0 70 87v507h105v-511q0 -86 -44.5 -131.5t-122.5 -45.5zM155 727l107 151h7l107 -151h-81l-30 40l-31 -40h-79z" />
    <glyph glyph-name="jcircumflex" unicode="&#x135;" horiz-adv-x="159" 
d="M17 -214q-38 0 -62 13l24 79q10 -6 23 -6q28 0 28 34v449h97v-451q0 -56 -28.5 -87t-81.5 -31zM-34 422l107 151h7l107 -151h-81l-30 40l-31 -40h-79z" />
    <glyph glyph-name="Kcommaaccent" unicode="&#x136;" horiz-adv-x="475" 
d="M355 0l-145 287l-52 -74v-213h-104v680h104v-315l186 315h111l-178 -303l190 -377h-112zM206 -222l21 73q-36 15 -36 52q0 25 17 41.5t41 16.5t41 -16.5t17 -41.5t-17 -57l-38 -68h-46z" />
    <glyph glyph-name="kcommaaccent" unicode="&#x137;" horiz-adv-x="321" 
d="M214 0l-66 133l-22 -29v-104h-97v701h97v-475l89 129h105l-102 -144l103 -211h-107zM122 -223l21 73q-36 15 -36 52q0 25 17 41.5t41 16.5t41 -16.5t17 -41.5t-17 -57l-38 -68h-46z" />
    <glyph glyph-name="Lacute" unicode="&#x139;" horiz-adv-x="397" 
d="M54 0v680h105v-588h212v-92h-317zM69 729l31 142h109l-64 -142h-76z" />
    <glyph glyph-name="lacute" unicode="&#x13a;" horiz-adv-x="157" 
d="M30 0v701h97v-701h-97zM38 729l31 142h109l-64 -142h-76z" />
    <glyph glyph-name="Lcommaaccent" unicode="&#x13b;" horiz-adv-x="397" 
d="M54 0v680h105v-588h212v-92h-317zM170 -222l21 73q-36 15 -36 52q0 25 17 41.5t41 16.5t41 -16.5t17 -41.5t-17 -57l-38 -68h-46z" />
    <glyph glyph-name="lcommaaccent" unicode="&#x13c;" horiz-adv-x="157" 
d="M30 0v701h97v-701h-97zM35 -222l21 73q-36 15 -36 52q0 25 17 41.5t41 16.5t41 -16.5t17 -41.5t-17 -57l-38 -68h-46z" />
    <glyph glyph-name="Lcaron" unicode="&#x13d;" horiz-adv-x="397" 
d="M54 0v680h105v-588h212v-92h-317zM257 499l22 81q-32 13 -32 51q0 24 16.5 40.5t40.5 16.5t40.5 -16.5t16.5 -40.5q0 -22 -17 -56l-39 -76h-48z" />
    <glyph glyph-name="lcaron" unicode="&#x13e;" horiz-adv-x="157" 
d="M30 0v701h97v-701h-97zM165 516l22 81q-32 13 -32 51q0 24 16.5 40.5t40.5 16.5t40.5 -16.5t16.5 -40.5q0 -22 -17 -56l-39 -76h-48z" />
    <glyph glyph-name="Lslash" unicode="&#x141;" horiz-adv-x="397" 
d="M10 222v88l44 16v354h105v-316l129 48v-88l-129 -48v-184h212v-92h-317v238z" />
    <glyph glyph-name="lslash" unicode="&#x142;" horiz-adv-x="177" 
d="M8 149v90l32 23v439h97v-370l38 27v-90l-38 -27v-241h-97v172z" />
    <glyph glyph-name="Nacute" unicode="&#x143;" horiz-adv-x="503" 
d="M436 -6l-237 337q-37 50 -49 74l1 -17q1 -17 1.5 -40t0.5 -38v-310h-99v686h13l237 -341q17 -25 49 -78l-1 7v17.5t-0.5 23l-1 26t-0.5 24.5v315h99v-686h-13zM200 729l31 142h109l-64 -142h-76z" />
    <glyph glyph-name="nacute" unicode="&#x144;" horiz-adv-x="336" 
d="M29 0v355h97v-40q29 49 87 49q44 0 71 -32t27 -91v-241h-97v230q0 21 -11 32.5t-29 11.5q-48 0 -48 -51v-223h-97zM128 419l31 142h109l-64 -142h-76z" />
    <glyph glyph-name="Ncommaaccent" unicode="&#x145;" horiz-adv-x="503" 
d="M436 -6l-237 337q-37 50 -49 74l1 -17q1 -17 1.5 -40t0.5 -38v-310h-99v686h13l237 -341q17 -25 49 -78l-1 7v17.5t-0.5 23l-1 26t-0.5 24.5v315h99v-686h-13zM219 -222l21 73q-36 15 -36 52q0 25 17 41.5t41 16.5t41 -16.5t17 -41.5t-17 -57l-38 -68h-46z" />
    <glyph glyph-name="ncommaaccent" unicode="&#x146;" horiz-adv-x="336" 
d="M29 0v355h97v-40q29 49 87 49q44 0 71 -32t27 -91v-241h-97v230q0 21 -11 32.5t-29 11.5q-48 0 -48 -51v-223h-97zM127 -222l21 73q-36 15 -36 52q0 25 17 41.5t41 16.5t41 -16.5t17 -41.5t-17 -57l-38 -68h-46z" />
    <glyph glyph-name="Ncaron" unicode="&#x147;" horiz-adv-x="503" 
d="M436 -6l-237 337q-37 50 -49 74l1 -17q1 -17 1.5 -40t0.5 -38v-310h-99v686h13l237 -341q17 -25 49 -78l-1 7v17.5t-0.5 23l-1 26t-0.5 24.5v315h99v-686h-13zM240 713l-107 151h81l30 -40l31 40h79l-107 -151h-7z" />
    <glyph glyph-name="ncaron" unicode="&#x148;" horiz-adv-x="336" 
d="M29 0v355h97v-40q29 49 87 49q44 0 71 -32t27 -91v-241h-97v230q0 21 -11 32.5t-29 11.5q-48 0 -48 -51v-223h-97zM168 408l-107 151h81l30 -40l31 40h79l-107 -151h-7z" />
    <glyph glyph-name="Omacron" unicode="&#x14c;" horiz-adv-x="550" 
d="M275 -9q-111 0 -178.5 90.5t-67.5 249.5v18q0 159 67.5 249t178.5 90t178.5 -90t67.5 -249v-18q0 -159 -67.5 -249.5t-178.5 -90.5zM275 86q64 0 101 64t37 184v12q0 120 -37 184t-101 64t-101.5 -64t-37.5 -184v-12q0 -120 37.5 -184t101.5 -64zM184 733v79h180v-79
h-180z" />
    <glyph glyph-name="omacron" unicode="&#x14d;" horiz-adv-x="347" 
d="M174 -9q-71 0 -113.5 48t-42.5 132v13q0 84 42.5 132t113.5 48t113 -48t42 -132v-13q0 -84 -42 -132t-113 -48zM173 74q55 0 55 98v12q0 97 -55 97t-55 -97v-12q0 -98 55 -98zM84 438v79h180v-79h-180z" />
    <glyph glyph-name="Ohungarumlaut" unicode="&#x150;" horiz-adv-x="550" 
d="M275 -9q-111 0 -178.5 90.5t-67.5 249.5v18q0 159 67.5 249t178.5 90t178.5 -90t67.5 -249v-18q0 -159 -67.5 -249.5t-178.5 -90.5zM275 86q64 0 101 64t37 184v12q0 120 -37 184t-101 64t-101.5 -64t-37.5 -184v-12q0 -120 37.5 -184t101.5 -64zM299 729l28 142h93
l-49 -142h-72zM176 729l28 142h93l-49 -142h-72z" />
    <glyph glyph-name="ohungarumlaut" unicode="&#x151;" horiz-adv-x="347" 
d="M174 -9q-71 0 -113.5 48t-42.5 132v13q0 84 42.5 132t113.5 48t113 -48t42 -132v-13q0 -84 -42 -132t-113 -48zM173 74q55 0 55 98v12q0 97 -55 97t-55 -97v-12q0 -98 55 -98zM199 419l28 142h93l-49 -142h-72zM76 419l28 142h93l-49 -142h-72z" />
    <glyph glyph-name="OE" unicode="&#x152;" horiz-adv-x="702" 
d="M314 0q-132 0 -208.5 89t-76.5 243v16q0 152 76.5 242t208.5 90h347v-92h-215v-199h180v-92h-180v-205h223v-92h-355zM320 92h22v496h-22q-86 0 -134.5 -64t-48.5 -179v-10q0 -243 183 -243z" />
    <glyph glyph-name="oe" unicode="&#x153;" horiz-adv-x="540" 
d="M174 -9q-71 0 -113.5 48t-42.5 132v13q0 84 42.5 132t113.5 48q69 0 106 -51q35 51 100 51q70 0 106.5 -49.5t36.5 -133.5v-38h-194q7 -67 69 -67q38 0 71 21l38 -76q-46 -30 -110 -30q-79 0 -117 50q-38 -50 -106 -50zM173 74q55 0 55 98v12q0 97 -55 97t-55 -97v-12
q0 -98 55 -98zM380 284q-44 0 -52 -71h97q-4 71 -45 71z" />
    <glyph glyph-name="Racute" unicode="&#x154;" horiz-adv-x="464" 
d="M54 0v680h156q102 0 158.5 -53.5t56.5 -145.5v-8q0 -62 -27.5 -110t-76.5 -74l131 -289h-110l-118 264h-65v-264h-105zM159 353h48q56 0 85 32t29 85v6q0 112 -114 112h-48v-235zM166 729l31 142h109l-64 -142h-76z" />
    <glyph glyph-name="racute" unicode="&#x155;" horiz-adv-x="239" 
d="M29 0v355h97v-44q23 51 72 51q19 0 37 -10l-23 -87q-20 6 -29 6q-57 0 -57 -79v-192h-97zM91 419l31 142h109l-64 -142h-76z" />
    <glyph glyph-name="Rcommaaccent" unicode="&#x156;" horiz-adv-x="464" 
d="M54 0v680h156q102 0 158.5 -53.5t56.5 -145.5v-8q0 -62 -27.5 -110t-76.5 -74l131 -289h-110l-118 264h-65v-264h-105zM159 353h48q56 0 85 32t29 85v6q0 112 -114 112h-48v-235zM191 -222l21 73q-36 15 -36 52q0 25 17 41.5t41 16.5t41 -16.5t17 -41.5t-17 -57l-38 -68
h-46z" />
    <glyph glyph-name="rcommaaccent" unicode="&#x157;" horiz-adv-x="239" 
d="M29 0v355h97v-44q23 51 72 51q19 0 37 -10l-23 -87q-20 6 -29 6q-57 0 -57 -79v-192h-97zM34 -222l21 73q-36 15 -36 52q0 25 17 41.5t41 16.5t41 -16.5t17 -41.5t-17 -57l-38 -68h-46z" />
    <glyph glyph-name="Rcaron" unicode="&#x158;" horiz-adv-x="464" 
d="M54 0v680h156q102 0 158.5 -53.5t56.5 -145.5v-8q0 -62 -27.5 -110t-76.5 -74l131 -289h-110l-118 264h-65v-264h-105zM159 353h48q56 0 85 32t29 85v6q0 112 -114 112h-48v-235zM213 713l-107 151h81l30 -40l31 40h79l-107 -151h-7z" />
    <glyph glyph-name="rcaron" unicode="&#x159;" horiz-adv-x="239" 
d="M29 0v355h97v-44q23 51 72 51q19 0 37 -10l-23 -87q-20 6 -29 6q-57 0 -57 -79v-192h-97zM128 408l-107 151h81l30 -40l31 40h79l-107 -151h-7z" />
    <glyph glyph-name="Sacute" unicode="&#x15a;" horiz-adv-x="400" 
d="M178 -9q-107 0 -173 68l62 74q53 -49 108 -49q43 0 68.5 23t25.5 61v8q0 30 -15.5 54.5t-53.5 56.5l-66 56q-51 43 -75 83.5t-24 95.5v7q0 70 47.5 114.5t123.5 44.5q81 0 142 -43l-50 -80q-44 31 -89 31q-31 0 -52 -18t-21 -47v-5q0 -31 15.5 -53.5t52.5 -53.5l68 -57
q52 -44 76.5 -86.5t24.5 -95.5v-10q0 -79 -52 -129t-143 -50zM168 729l31 142h109l-64 -142h-76z" />
    <glyph glyph-name="sacute" unicode="&#x15b;" horiz-adv-x="261" 
d="M125 -9q-77 0 -118 47l51 61q26 -30 61 -30q37 0 37 26v3q0 14 -29 33q-1 0 -32 20q-72 45 -72 108v4q0 46 31 73.5t83 27.5q57 0 97 -31l-45 -63q-22 18 -49 18q-30 0 -30 -22v-2q0 -11 10 -19.5t35 -23.5q7 -4 11 -6q82 -49 82 -115v-5q0 -46 -33 -75t-90 -29zM95 419
l31 142h109l-64 -142h-76z" />
    <glyph glyph-name="Scircumflex" unicode="&#x15c;" horiz-adv-x="400" 
d="M178 -9q-107 0 -173 68l62 74q53 -49 108 -49q43 0 68.5 23t25.5 61v8q0 30 -15.5 54.5t-53.5 56.5l-66 56q-51 43 -75 83.5t-24 95.5v7q0 70 47.5 114.5t123.5 44.5q81 0 142 -43l-50 -80q-44 31 -89 31q-31 0 -52 -18t-21 -47v-5q0 -31 15.5 -53.5t52.5 -53.5l68 -57
q52 -44 76.5 -86.5t24.5 -95.5v-10q0 -79 -52 -129t-143 -50zM97 727l107 151h7l107 -151h-81l-30 40l-31 -40h-79z" />
    <glyph glyph-name="scircumflex" unicode="&#x15d;" horiz-adv-x="261" 
d="M125 -9q-77 0 -118 47l51 61q26 -30 61 -30q37 0 37 26v3q0 14 -29 33q-1 0 -32 20q-72 45 -72 108v4q0 46 31 73.5t83 27.5q57 0 97 -31l-45 -63q-22 18 -49 18q-30 0 -30 -22v-2q0 -11 10 -19.5t35 -23.5q7 -4 11 -6q82 -49 82 -115v-5q0 -46 -33 -75t-90 -29zM24 422
l107 151h7l107 -151h-81l-30 40l-31 -40h-79z" />
    <glyph glyph-name="Scedilla" unicode="&#x15e;" horiz-adv-x="410" 
d="M186 -174q-32 0 -52 13l22 47q9 -7 24 -7q26 0 26 21v3q0 20 -25 20h-18v69q-91 7 -148 67l62 74q53 -49 108 -49q43 0 68.5 23t25.5 61v8q0 30 -15.5 54.5t-53.5 56.5l-66 56q-51 43 -75 83.5t-24 95.5v7q0 70 47.5 114.5t123.5 44.5q81 0 142 -43l-50 -80
q-44 31 -89 31q-31 0 -52 -18t-21 -47v-5q0 -31 15.5 -53.5t52.5 -53.5l68 -57q52 -44 76.5 -86.5t24.5 -95.5v-10q0 -73 -45 -122t-125 -56v-27q54 -10 54 -64v-4q0 -33 -23 -52t-58 -19z" />
    <glyph glyph-name="scedilla" unicode="&#x15f;" horiz-adv-x="263" 
d="M119 -174q-32 0 -52 13l22 47q9 -7 24 -7q26 0 26 21v3q0 20 -25 20h-18v70q-56 8 -88 45l51 61q26 -30 61 -30q37 0 37 26v3q0 14 -29 33q-1 0 -32 20q-72 45 -72 108v4q0 46 31 73.5t83 27.5q57 0 97 -31l-45 -63q-22 18 -49 18q-30 0 -30 -22v-2q0 -11 10 -19.5
t35 -23.5q7 -4 11 -6q82 -49 82 -115v-5q0 -42 -27.5 -70t-75.5 -33v-27q54 -10 54 -64v-4q0 -33 -23 -52t-58 -19z" />
    <glyph glyph-name="Scaron" unicode="&#x160;" horiz-adv-x="400" 
d="M178 -9q-107 0 -173 68l62 74q53 -49 108 -49q43 0 68.5 23t25.5 61v8q0 30 -15.5 54.5t-53.5 56.5l-66 56q-51 43 -75 83.5t-24 95.5v7q0 70 47.5 114.5t123.5 44.5q81 0 142 -43l-50 -80q-44 31 -89 31q-31 0 -52 -18t-21 -47v-5q0 -31 15.5 -53.5t52.5 -53.5l68 -57
q52 -44 76.5 -86.5t24.5 -95.5v-10q0 -79 -52 -129t-143 -50zM205 713l-107 151h81l30 -40l31 40h79l-107 -151h-7z" />
    <glyph glyph-name="scaron" unicode="&#x161;" horiz-adv-x="261" 
d="M125 -9q-77 0 -118 47l51 61q26 -30 61 -30q37 0 37 26v3q0 14 -29 33q-1 0 -32 20q-72 45 -72 108v4q0 46 31 73.5t83 27.5q57 0 97 -31l-45 -63q-22 18 -49 18q-30 0 -30 -22v-2q0 -11 10 -19.5t35 -23.5q7 -4 11 -6q82 -49 82 -115v-5q0 -46 -33 -75t-90 -29zM132 408
l-107 151h81l30 -40l31 40h79l-107 -151h-7z" />
    <glyph glyph-name="Tcommaaccent" unicode="&#x162;" horiz-adv-x="423" 
d="M159 0v588h-139v92h383v-92h-139v-588h-105zM168 -222l21 73q-36 15 -36 52q0 25 17 41.5t41 16.5t41 -16.5t17 -41.5t-17 -57l-38 -68h-46z" />
    <glyph glyph-name="tcommaaccent" unicode="&#x163;" horiz-adv-x="223" 
d="M13 276v79h34v109h97v-109h63v-79h-63v-169q0 -33 23 -33q10 0 23 8l30 -70q-28 -20 -71 -20q-102 0 -102 115v169h-34zM85 -222l21 73q-36 15 -36 52q0 25 17 41.5t41 16.5t41 -16.5t17 -41.5t-17 -57l-38 -68h-46z" />
    <glyph glyph-name="Tcaron" unicode="&#x164;" horiz-adv-x="423" 
d="M159 0v588h-139v92h383v-92h-139v-588h-105zM205 713l-107 151h81l30 -40l31 40h79l-107 -151h-7z" />
    <glyph glyph-name="tcaron" unicode="&#x165;" horiz-adv-x="223" 
d="M175 516l22 81q-32 13 -32 51q0 24 16.5 40.5t40.5 16.5t40.5 -16.5t16.5 -40.5q0 -22 -17 -56l-39 -76h-48zM13 276v79h34v109h97v-109h63v-79h-63v-169q0 -33 23 -33q10 0 23 8l30 -70q-28 -20 -71 -20q-102 0 -102 115v169h-34z" />
    <glyph glyph-name="Umacron" unicode="&#x16a;" horiz-adv-x="504" 
d="M252 -9q-92 0 -146.5 53.5t-54.5 155.5v480h105v-478q0 -56 25 -85.5t71 -29.5t71 29.5t25 85.5v478h105v-480q0 -102 -54.5 -155.5t-146.5 -53.5zM162 733v79h180v-79h-180z" />
    <glyph glyph-name="umacron" unicode="&#x16b;" horiz-adv-x="337" 
d="M124 -9q-44 0 -71 32t-27 92v240h97v-230q0 -21 11 -32.5t29 -11.5q48 0 48 52v222h97v-355h-97v41q-29 -50 -87 -50zM78 438v79h180v-79h-180z" />
    <glyph glyph-name="Ubreve" unicode="&#x16c;" horiz-adv-x="504" 
d="M252 -9q-92 0 -146.5 53.5t-54.5 155.5v480h105v-478q0 -56 25 -85.5t71 -29.5t71 29.5t25 85.5v478h105v-480q0 -102 -54.5 -155.5t-146.5 -53.5zM252 720q-46 0 -74 28.5t-30 74.5l73 3q3 -33 31 -33t31 33l73 -3q-2 -46 -30 -74.5t-74 -28.5z" />
    <glyph glyph-name="ubreve" unicode="&#x16d;" horiz-adv-x="337" 
d="M124 -9q-44 0 -71 32t-27 92v240h97v-230q0 -21 11 -32.5t29 -11.5q48 0 48 52v222h97v-355h-97v41q-29 -50 -87 -50zM168 425q-46 0 -74 28.5t-30 74.5l73 3q3 -33 31 -33t31 33l73 -3q-2 -46 -30 -74.5t-74 -28.5z" />
    <glyph glyph-name="Uring" unicode="&#x16e;" horiz-adv-x="504" 
d="M252 -9q-92 0 -146.5 53.5t-54.5 155.5v480h105v-478q0 -56 25 -85.5t71 -29.5t71 29.5t25 85.5v478h105v-480q0 -102 -54.5 -155.5t-146.5 -53.5zM252 722q-34 0 -59.5 24t-25.5 56q0 33 25 57t60 24t60 -24t25 -57q0 -32 -25.5 -56t-59.5 -24zM252 771q13 0 21.5 8
t8.5 23t-8.5 23.5t-21.5 8.5t-21.5 -8.5t-8.5 -23.5t8.5 -23t21.5 -8z" />
    <glyph glyph-name="uring" unicode="&#x16f;" horiz-adv-x="337" 
d="M124 -9q-44 0 -71 32t-27 92v240h97v-230q0 -21 11 -32.5t29 -11.5q48 0 48 52v222h97v-355h-97v41q-29 -50 -87 -50zM168 397q-34 0 -59.5 24t-25.5 56q0 33 25 57t60 24t60 -24t25 -57q0 -32 -25.5 -56t-59.5 -24zM168 446q13 0 21.5 8t8.5 23t-8.5 23.5t-21.5 8.5
t-21.5 -8.5t-8.5 -23.5t8.5 -23t21.5 -8z" />
    <glyph glyph-name="Uhungarumlaut" unicode="&#x170;" horiz-adv-x="504" 
d="M252 -9q-92 0 -146.5 53.5t-54.5 155.5v480h105v-478q0 -56 25 -85.5t71 -29.5t71 29.5t25 85.5v478h105v-480q0 -102 -54.5 -155.5t-146.5 -53.5zM277 729l28 142h93l-49 -142h-72zM154 729l28 142h93l-49 -142h-72z" />
    <glyph glyph-name="uhungarumlaut" unicode="&#x171;" horiz-adv-x="337" 
d="M124 -9q-44 0 -71 32t-27 92v240h97v-230q0 -21 11 -32.5t29 -11.5q48 0 48 52v222h97v-355h-97v41q-29 -50 -87 -50zM193 419l28 142h93l-49 -142h-72zM70 419l28 142h93l-49 -142h-72z" />
    <glyph glyph-name="Uogonek" unicode="&#x172;" horiz-adv-x="504" 
d="M252 -9q-92 0 -146.5 53.5t-54.5 155.5v480h105v-478q0 -56 25 -85.5t71 -29.5t71 29.5t25 85.5v478h105v-480q0 -119 -79 -178q-46 -35 -69.5 -74t-23.5 -68q0 -20 18 -20q9 0 21 7l25 -61q-27 -19 -63 -19q-41 0 -63.5 22t-22.5 60q0 58 60 122h-4z" />
    <glyph glyph-name="uogonek" unicode="&#x173;" horiz-adv-x="337" 
d="M245 -213q-41 0 -63.5 22t-22.5 60q0 67 74 131h-22v41q-29 -50 -87 -50q-44 0 -71 32t-27 92v240h97v-230q0 -21 11 -32.5t29 -11.5q48 0 48 52v222h97v-347q-64 -87 -64 -128q0 -20 18 -20q9 0 21 7l25 -61q-27 -19 -63 -19z" />
    <glyph glyph-name="Ydieresis" unicode="&#x178;" horiz-adv-x="465" 
d="M181 0v264l-173 416h107l87 -218q22 -57 34 -98q13 46 33 98l85 218h103l-171 -415v-265h-105zM315 727q-21 0 -37.5 16t-16.5 38t16.5 38t37.5 16t37.5 -16t16.5 -38t-16.5 -38t-37.5 -16zM173 727q-21 0 -37.5 16t-16.5 38t16.5 38t37.5 16t37.5 -16t16.5 -38
t-16.5 -38t-37.5 -16z" />
    <glyph glyph-name="Zacute" unicode="&#x179;" horiz-adv-x="427" 
d="M10 0v8l249 580h-209v92h358v-8l-249 -580h239v-92h-388zM194 729l31 142h109l-64 -142h-76z" />
    <glyph glyph-name="zacute" unicode="&#x17a;" horiz-adv-x="277" 
d="M9 0v6l128 272h-107v77h236v-6l-127 -271h117v-78h-247zM102 419l31 142h109l-64 -142h-76z" />
    <glyph glyph-name="Zdotaccent" unicode="&#x17b;" horiz-adv-x="427" 
d="M10 0v8l249 580h-209v92h358v-8l-249 -580h239v-92h-388zM234 727q-22 0 -39 16.5t-17 39.5q0 24 17 40t39 16q24 0 40 -16t16 -40t-16.5 -40t-39.5 -16z" />
    <glyph glyph-name="zdotaccent" unicode="&#x17c;" horiz-adv-x="277" 
d="M9 0v6l128 272h-107v77h236v-6l-127 -271h117v-78h-247zM142 422q-22 0 -39 16.5t-17 39.5q0 24 17 40t39 16q24 0 40 -16t16 -40t-16.5 -40t-39.5 -16z" />
    <glyph glyph-name="Zcaron" unicode="&#x17d;" horiz-adv-x="427" 
d="M10 0v8l249 580h-209v92h358v-8l-249 -580h239v-92h-388zM231 713l-107 151h81l30 -40l31 40h79l-107 -151h-7z" />
    <glyph glyph-name="zcaron" unicode="&#x17e;" horiz-adv-x="277" 
d="M9 0v6l128 272h-107v77h236v-6l-127 -271h117v-78h-247zM139 408l-107 151h81l30 -40l31 40h79l-107 -151h-7z" />
    <glyph glyph-name="florin" unicode="&#x192;" horiz-adv-x="295" 
d="M30 231v80h52l9 128q4 65 35.5 97.5t82.5 32.5q55 0 87 -26l-40 -73q-15 11 -34 11q-31 0 -34 -41l-9 -129h65v-80h-71l-26 -392h-97l27 392h-47z" />
    <glyph glyph-name="Scommaaccent" unicode="&#x218;" horiz-adv-x="400" 
d="M178 -9q-107 0 -173 68l62 74q53 -49 108 -49q43 0 68.5 23t25.5 61v8q0 30 -15.5 54.5t-53.5 56.5l-66 56q-51 43 -75 83.5t-24 95.5v7q0 70 47.5 114.5t123.5 44.5q81 0 142 -43l-50 -80q-44 31 -89 31q-31 0 -52 -18t-21 -47v-5q0 -31 15.5 -53.5t52.5 -53.5l68 -57
q52 -44 76.5 -86.5t24.5 -95.5v-10q0 -79 -52 -129t-143 -50zM151 -222l21 73q-36 15 -36 52q0 25 17 41.5t41 16.5t41 -16.5t17 -41.5t-17 -57l-38 -68h-46z" />
    <glyph glyph-name="scommaaccent" unicode="&#x219;" horiz-adv-x="261" 
d="M125 -9q-77 0 -118 47l51 61q26 -30 61 -30q37 0 37 26v3q0 14 -29 33q-1 0 -32 20q-72 45 -72 108v4q0 46 31 73.5t83 27.5q57 0 97 -31l-45 -63q-22 18 -49 18q-30 0 -30 -22v-2q0 -11 10 -19.5t35 -23.5q7 -4 11 -6q82 -49 82 -115v-5q0 -46 -33 -75t-90 -29zM84 -222
l21 73q-36 15 -36 52q0 25 17 41.5t41 16.5t41 -16.5t17 -41.5t-17 -57l-38 -68h-46z" />
    <glyph glyph-name="uni021A" unicode="&#x21a;" horiz-adv-x="423" 
d="M159 0v588h-139v92h383v-92h-139v-588h-35v-35q54 -10 54 -64v-4q0 -33 -23 -52t-58 -19q-32 0 -52 13l22 47q9 -7 24 -7q26 0 26 21v3q0 20 -25 20h-18v77h-20z" />
    <glyph glyph-name="uni021B" unicode="&#x21b;" horiz-adv-x="223" 
d="M114 -174q-32 0 -52 13l22 47q9 -7 24 -7q26 0 26 21v3q0 20 -25 20h-18v82q-44 26 -44 102v169h-34v79h34v109h97v-109h63v-79h-63v-169q0 -33 23 -33q10 0 23 8l30 -70q-28 -20 -71 -20h-8v-27q54 -10 54 -64v-4q0 -33 -23 -52t-58 -19z" />
    <glyph glyph-name="uni0237" unicode="&#x237;" horiz-adv-x="157" 
d="M17 -214q-38 0 -62 13l24 79q10 -6 23 -6q28 0 28 34v449h97v-451q0 -56 -28.5 -87t-81.5 -31z" />
    <glyph glyph-name="circumflex" unicode="&#x2c6;" 
d="M54 422l107 151h7l107 -151h-81l-30 40l-31 -40h-79z" />
    <glyph glyph-name="caron" unicode="&#x2c7;" 
d="M162 408l-107 151h81l30 -40l31 40h79l-107 -151h-7z" />
    <glyph glyph-name="breve" unicode="&#x2d8;" 
d="M165 425q-46 0 -74 28.5t-30 74.5l73 3q3 -33 31 -33t31 33l73 -3q-2 -46 -30 -74.5t-74 -28.5z" />
    <glyph glyph-name="dotaccent" unicode="&#x2d9;" 
d="M165 422q-22 0 -39 16.5t-17 39.5q0 24 17 40t39 16q24 0 40 -16t16 -40t-16.5 -40t-39.5 -16z" />
    <glyph glyph-name="ring" unicode="&#x2da;" 
d="M165 397q-34 0 -59.5 24t-25.5 56q0 33 25 57t60 24t60 -24t25 -57q0 -32 -25.5 -56t-59.5 -24zM165 446q13 0 21.5 8t8.5 23t-8.5 23.5t-21.5 8.5t-21.5 -8.5t-8.5 -23.5t8.5 -23t21.5 -8z" />
    <glyph glyph-name="ogonek" unicode="&#x2db;" 
d="M165 -213q-41 0 -63.5 22t-22.5 60q0 67 74 131h69q-58 -79 -58 -120q0 -20 18 -20q9 0 21 7l25 -61q-27 -19 -63 -19z" />
    <glyph glyph-name="tilde" unicode="&#x2dc;" 
d="M111 415l-65 5q11 102 76 102q18 0 43 -12t31 -12q19 0 21 26l65 -5q-5 -49 -25 -75.5t-51 -26.5q-18 0 -43 12t-31 12q-19 0 -21 -26z" />
    <glyph glyph-name="hungarumlaut" unicode="&#x2dd;" 
d="M190 419l28 142h93l-49 -142h-72zM67 419l28 142h93l-49 -142h-72z" />
    <glyph glyph-name="endash" unicode="&#x2013;" horiz-adv-x="302" 
d="M29 173v87h244v-87h-244z" />
    <glyph glyph-name="emdash" unicode="&#x2014;" horiz-adv-x="502" 
d="M29 173v87h444v-87h-444z" />
    <glyph glyph-name="quoteleft" unicode="&#x2018;" horiz-adv-x="168" 
d="M84 467q-25 0 -43.5 18t-18.5 44q0 23 18 61l44 90h49l-26 -95q39 -14 39 -56q0 -26 -18.5 -44t-43.5 -18z" />
    <glyph glyph-name="quoteright" unicode="&#x2019;" horiz-adv-x="168" 
d="M35 475l26 95q-39 14 -39 56q0 26 18.5 44t43.5 18t43.5 -18t18.5 -44q0 -23 -18 -61l-44 -90h-49z" />
    <glyph glyph-name="quotesinglbase" unicode="&#x201a;" horiz-adv-x="168" 
d="M35 -92l26 95q-39 14 -39 56q0 26 18.5 44t43.5 18t43.5 -18t18.5 -44q0 -23 -18 -61l-44 -90h-49z" />
    <glyph glyph-name="quotedblleft" unicode="&#x201c;" horiz-adv-x="333" 
d="M249 467q-25 0 -43.5 18t-18.5 44q0 23 18 61l44 90h49l-26 -95q39 -14 39 -56q0 -26 -18.5 -44t-43.5 -18zM84 467q-25 0 -43.5 18t-18.5 44q0 23 18 61l44 90h49l-26 -95q39 -14 39 -56q0 -26 -18.5 -44t-43.5 -18z" />
    <glyph glyph-name="quotedblright" unicode="&#x201d;" horiz-adv-x="333" 
d="M200 475l26 95q-39 14 -39 56q0 26 18.5 44t43.5 18t43.5 -18t18.5 -44q0 -23 -18 -61l-44 -90h-49zM35 475l26 95q-39 14 -39 56q0 26 18.5 44t43.5 18t43.5 -18t18.5 -44q0 -23 -18 -61l-44 -90h-49z" />
    <glyph glyph-name="quotedblbase" unicode="&#x201e;" horiz-adv-x="333" 
d="M200 -92l26 95q-39 14 -39 56q0 26 18.5 44t43.5 18t43.5 -18t18.5 -44q0 -23 -18 -61l-44 -90h-49zM35 -92l26 95q-39 14 -39 56q0 26 18.5 44t43.5 18t43.5 -18t18.5 -44q0 -23 -18 -61l-44 -90h-49z" />
    <glyph glyph-name="dagger" unicode="&#x2020;" horiz-adv-x="269" 
d="M26 513v80h64v87h89v-87h64v-80h-64v-189h-89v189h-64z" />
    <glyph glyph-name="daggerdbl" unicode="&#x2021;" horiz-adv-x="269" 
d="M26 527v76h64v77h89v-77h64v-76h-64v-50h64v-76h-64v-77h-89v77h-64v76h64v50h-64z" />
    <glyph glyph-name="bullet" unicode="&#x2022;" horiz-adv-x="230" 
d="M115 148q-35 0 -60.5 25t-25.5 61t25.5 61t60.5 25t60.5 -25t25.5 -61t-25.5 -61t-60.5 -25z" />
    <glyph glyph-name="ellipsis" unicode="&#x2026;" horiz-adv-x="585" 
d="M492 -5q-27 0 -46.5 18.5t-19.5 46.5t19.5 46.5t46.5 18.5t46 -18.5t19 -46.5t-19 -46.5t-46 -18.5zM94 -5q-27 0 -46.5 18.5t-19.5 46.5t19.5 46.5t46.5 18.5t46 -18.5t19 -46.5t-19 -46.5t-46 -18.5zM293 -5q-27 0 -46.5 18.5t-19.5 46.5t19.5 46.5t46.5 18.5t46 -18.5
t19 -46.5t-19 -46.5t-46 -18.5z" />
    <glyph glyph-name="perthousand" unicode="&#x2030;" horiz-adv-x="861" 
d="M104 0l289 561h89l-289 -561h-89zM147 312q-53 0 -90 36.5t-37 90.5v3q0 54 37 90.5t90 36.5t90 -36.5t37 -90.5v-3q0 -54 -37 -90.5t-90 -36.5zM147 385q20 0 32 14.5t12 39.5v3q0 24 -12 38.5t-32 14.5t-32.5 -14.5t-12.5 -38.5v-3q0 -25 12.5 -39.5t32.5 -14.5z
M439 -8q-53 0 -90 36.5t-37 90.5v4q0 54 37 90.5t90 36.5t89.5 -37t36.5 -90v-4q0 -53 -36.5 -90t-89.5 -37zM439 66q20 0 32 14.5t12 39.5v2q0 25 -12 39.5t-32 14.5t-32.5 -14.5t-12.5 -39.5v-2q0 -25 12.5 -39.5t32.5 -14.5zM715 -8q-53 0 -90 36.5t-37 90.5v4
q0 54 37 90.5t90 36.5t89.5 -37t36.5 -90v-4q0 -53 -36.5 -90t-89.5 -37zM715 66q20 0 32 14.5t12 39.5v2q0 25 -12 39.5t-32 14.5t-32.5 -14.5t-12.5 -39.5v-2q0 -25 12.5 -39.5t32.5 -14.5z" />
    <glyph glyph-name="guilsinglleft" unicode="&#x2039;" horiz-adv-x="179" 
d="M69 52l-50 133v4l50 131h91l-50 -133l50 -135h-91z" />
    <glyph glyph-name="guilsinglright" unicode="&#x203a;" horiz-adv-x="179" 
d="M19 52l50 133l-50 135h91l50 -133v-4l-50 -131h-91z" />
    <glyph glyph-name="fraction" unicode="&#x2044;" horiz-adv-x="341" 
d="M-21 0l289 561h94l-289 -561h-94z" />
    <glyph glyph-name="Euro" unicode="&#x20ac;" horiz-adv-x="421" 
d="M24 301v70h53q17 95 73.5 146.5t141.5 51.5q62 0 109 -31l-41 -80q-36 19 -65 19q-91 0 -114 -106h113v-70h-120v-44h120v-70h-112q22 -104 115 -104q32 0 70 23l39 -81q-48 -33 -116 -33q-83 0 -139 51.5t-74 143.5h-53v70h46v44h-46z" />
    <glyph glyph-name="trademark" unicode="&#x2122;" horiz-adv-x="398" 
d="M195 498v184h6l80 -88l78 88h6v-184h-52v69l-32 -38l-33 38v-69h-53zM25 635v45h140v-45h-42v-137h-55v137h-43z" />
    <glyph glyph-name="summation" unicode="&#x2211;" horiz-adv-x="444" 
d="M23 0v6l189 341l-193 327v6h378v-92h-210l140 -240v-6l-145 -250h229v-92h-388z" />
    <glyph glyph-name="minus" unicode="&#x2212;" horiz-adv-x="325" 
d="M33 238v87h259v-87h-259z" />
    <glyph glyph-name="space_uni0326" horiz-adv-x="178" 
d="M46 -222l21 73q-36 15 -36 52q0 25 17 41.5t41 16.5t41 -16.5t17 -41.5t-17 -57l-38 -68h-46z" />
    <glyph glyph-name="idotaccent" horiz-adv-x="157" 
d="M30 0v355h97v-355h-97zM78 432q-22 0 -39 16.5t-17 39.5q0 24 17 40t39 16q24 0 40 -16t16 -40t-16.5 -40t-39.5 -16z" />
    <glyph glyph-name="L_A" horiz-adv-x="878" 
d="M54 0v680h105v-588h216l-31 -92h-290zM757 0l-39 127h-175l-39 -127h-104l227 686h13l227 -686h-110zM606 330l-36 -116h121l-34 116q-22 73 -25 99q-18 -73 -26 -99z" />
    <glyph glyph-name="G.alt" horiz-adv-x="514" 
d="M276 -9q-117 0 -182 90t-65 247v24q0 152 68.5 244t188.5 92q101 0 172 -69l-60 -78q-52 52 -109 52q-70 0 -111.5 -66t-41.5 -178v-18q0 -117 35 -182.5t105 -65.5q55 0 82 40t27 139h-111v92h215v-89q0 -131 -55.5 -202.5t-157.5 -71.5z" />
    <glyph glyph-name="K.alt" horiz-adv-x="470" 
d="M159 680v-323l193 323h106l-197 -334l198 -346h-114l-186 323v-323h-104v680h104z" />
    <glyph glyph-name="M.alt" horiz-adv-x="567" 
d="M47 0l27 686h12l199 -369l195 369h12l28 -686h-101l-12 290v83q-36 -73 -42 -83l-79 -134h-7l-78 134q-20 35 -43 80v-82l-11 -288h-100z" />
    <glyph glyph-name="Q.alt" horiz-adv-x="550" 
d="M443 -71l-71 85q-44 -21 -97 -21q-112 0 -179 89.5t-67 248.5v18q0 159 67.5 249t178.5 90t178.5 -90t67.5 -249v-18q0 -171 -79 -263l69 -82zM275 81q23 0 37 5l-57 69l68 57l56 -68q34 62 34 190v12q0 120 -37 184t-101 64t-101.5 -64t-37.5 -184v-12q0 -124 37 -188.5
t102 -64.5z" />
    <glyph glyph-name="Q.alt1" horiz-adv-x="550" 
d="M398 -107q-31 0 -63 13t-44.5 21.5l-45.5 32.5l-23 17.5t-24.5 18t-19 11.5t-23 10.5t-20.5 2.5q-37 0 -73 -36l-53 65q35 35 76 48q-56 89 -56 234v18q0 159 67.5 249t178.5 90t178.5 -90t67.5 -249v-18q0 -138 -51.5 -221t-140.5 -102q36 -26 67 -26q37 0 64 25l55 -68
q-46 -46 -117 -46zM275 86q64 0 101 64t37 184v12q0 120 -37 184t-101 64t-101.5 -64t-37.5 -184v-12q0 -120 37.5 -184t101.5 -64z" />
    <glyph glyph-name="W.alt" horiz-adv-x="658" 
d="M208 -5l-196 685h105l91 -337q5 -17 10 -40l8.5 -40.5t3.5 -19.5q7 36 30 101l26 84l-87 252h99l15 -51q5 -17 13 -50.5t9 -35.5q9 42 23 86l16 51h94l-89 -252l25 -83q6 -18 13 -42.5l11.5 -41.5t5.5 -19q0 13 22 101l90 337h100l-195 -685h-14l-84 244l-8.5 24t-7 22.5
l-4.5 17.5l-2 8l-3 -12l-9.5 -29t-10.5 -31l-86 -244h-14z" />
    <glyph glyph-name="AE.alt" horiz-adv-x="679" 
d="M368 0l-39 127h-174l-40 -127h-104l227 680h281v-92h-231l64 -199h187v-92h-157l66 -205h209v-92h-289zM217 325l-35 -111h120l-34 111q-20 66 -26 99q-12 -52 -25 -99z" />
    <glyph glyph-name="a.alt" horiz-adv-x="349" 
d="M141 -9q-52 0 -87.5 45.5t-35.5 133.5v15q0 88 35 133.5t87 45.5q57 0 82 -43v34h97v-355h-97v36q-28 -45 -81 -45zM171 75q53 0 53 96v13q0 96 -53 96t-53 -96v-13q0 -96 53 -96z" />
    <glyph glyph-name="g.alt" horiz-adv-x="319" 
d="M156 94q-19 0 -34 4q-12 -7 -12 -19t12 -19t45 -11q72 -10 106.5 -41.5t34.5 -89.5v-4q0 -59 -40.5 -94.5t-108.5 -35.5q-66 0 -107.5 32t-41.5 84v4q0 63 59 87q-39 19 -39 67q0 44 43 65q-47 39 -47 103v6q0 64 39.5 98t90.5 34q28 0 52 -9h95v-68h-32q16 -27 16 -55
v-6q0 -63 -40 -97.5t-91 -34.5zM158 -139q25 0 40.5 14t15.5 36v3q0 23 -16 36t-45 13q-24 0 -39.5 -13.5t-15.5 -35.5v-3q0 -23 16.5 -36.5t43.5 -13.5zM157 168q17 0 28.5 15t11.5 44v4q0 29 -11.5 44t-28.5 15t-29 -14.5t-12 -44.5v-4q0 -30 12 -44.5t29 -14.5z" />
    <glyph glyph-name="k.alt" horiz-adv-x="329" 
d="M29 0v701h97v-499l94 153h101l-105 -167l108 -188h-107l-91 159v-159h-97z" />
    <glyph glyph-name="u.alt" horiz-adv-x="334" 
d="M167 -9q-67 0 -104 37.5t-37 105.5v221h97v-219q0 -58 44 -58t44 58v219h97v-221q0 -68 -37 -105.5t-104 -37.5z" />
    <glyph glyph-name="Adieresis.alt" horiz-adv-x="489" 
d="M380 579q-21 0 -37.5 16t-16.5 38t16.5 38t37.5 16t37.5 -16t16.5 -38t-16.5 -38t-37.5 -16zM109 579q-21 0 -37.5 16t-16.5 38t16.5 38t37.5 16t37.5 -16t16.5 -38t-16.5 -38t-37.5 -16zM368 0l-39 127h-175l-39 -127h-104l227 686h13l227 -686h-110zM217 330l-36 -116
h121l-34 116q-22 73 -25 99q-18 -73 -26 -99z" />
    <glyph glyph-name="Aring.alt" horiz-adv-x="489" 
d="M244 650q13 0 21.5 8t8.5 23t-8.5 23.5t-21.5 8.5t-21.5 -8.5t-8.5 -23.5t8.5 -23t21.5 -8zM368 0l-39 127h-175l-39 -127h-104l201 607q-24 9 -38.5 29.5t-14.5 44.5q0 33 25 57t60 24t60 -24t25 -57q0 -24 -14.5 -44t-37.5 -30l201 -607h-110zM217 330l-36 -116h122
l-35 116q-20 63 -25 105l-5 -21q-4 -21 -10 -44.5t-11 -39.5z" />
    <glyph glyph-name="Gbreve.alt" horiz-adv-x="514" 
d="M276 -9q-117 0 -182 90t-65 247v24q0 152 68.5 244t188.5 92q101 0 172 -69l-60 -78q-52 52 -109 52q-70 0 -111.5 -66t-41.5 -178v-18q0 -117 35 -182.5t105 -65.5q55 0 82 40t27 139h-111v92h215v-89q0 -131 -55.5 -202.5t-157.5 -71.5zM278 720q-46 0 -74 28.5
t-30 74.5l73 3q3 -33 31 -33t31 33l73 -3q-2 -46 -30 -74.5t-74 -28.5z" />
    <glyph glyph-name="Gcircumflex.alt" horiz-adv-x="514" 
d="M276 -9q-117 0 -182 90t-65 247v24q0 152 68.5 244t188.5 92q101 0 172 -69l-60 -78q-52 52 -109 52q-70 0 -111.5 -66t-41.5 -178v-18q0 -117 35 -182.5t105 -65.5q55 0 82 40t27 139h-111v92h215v-89q0 -131 -55.5 -202.5t-157.5 -71.5zM166 727l107 151h7l107 -151
h-81l-30 40l-31 -40h-79z" />
    <glyph glyph-name="Gcommaaccent.alt" horiz-adv-x="514" 
d="M276 -9q-117 0 -182 90t-65 247v24q0 152 68.5 244t188.5 92q101 0 172 -69l-60 -78q-52 52 -109 52q-70 0 -111.5 -66t-41.5 -178v-18q0 -117 35 -182.5t105 -65.5q55 0 82 40t27 139h-111v92h215v-89q0 -131 -55.5 -202.5t-157.5 -71.5zM233 -222l21 73q-36 15 -36 52
q0 25 17 41.5t41 16.5t41 -16.5t17 -41.5t-17 -57l-38 -68h-46z" />
    <glyph glyph-name="Gdotaccent.alt" horiz-adv-x="514" 
d="M276 -9q-117 0 -182 90t-65 247v24q0 152 68.5 244t188.5 92q101 0 172 -69l-60 -78q-52 52 -109 52q-70 0 -111.5 -66t-41.5 -178v-18q0 -117 35 -182.5t105 -65.5q55 0 82 40t27 139h-111v92h215v-89q0 -131 -55.5 -202.5t-157.5 -71.5zM273 727q-22 0 -39 16.5
t-17 39.5q0 24 17 40t39 16q24 0 40 -16t16 -40t-16.5 -40t-39.5 -16z" />
    <glyph glyph-name="Kcommaaccent.alt" horiz-adv-x="470" 
d="M159 680v-323l193 323h106l-197 -334l198 -346h-114l-186 323v-323h-104v680h104zM195 -222l21 73q-36 15 -36 52q0 25 17 41.5t41 16.5t41 -16.5t17 -41.5t-17 -57l-38 -68h-46z" />
    <glyph glyph-name="aacute.alt" horiz-adv-x="349" 
d="M141 -9q-52 0 -87.5 45.5t-35.5 133.5v15q0 88 35 133.5t87 45.5q57 0 82 -43v34h97v-355h-97v36q-28 -45 -81 -45zM171 75q53 0 53 96v13q0 96 -53 96t-53 -96v-13q0 -96 53 -96zM141 419l31 142h109l-64 -142h-76z" />
    <glyph glyph-name="abreve.alt" horiz-adv-x="349" 
d="M141 -9q-52 0 -87.5 45.5t-35.5 133.5v15q0 88 35 133.5t87 45.5q57 0 82 -43v34h97v-355h-97v36q-28 -45 -81 -45zM171 75q53 0 53 96v13q0 96 -53 96t-53 -96v-13q0 -96 53 -96zM181 425q-46 0 -74 28.5t-30 74.5l73 3q3 -33 31 -33t31 33l73 -3q-2 -46 -30 -74.5
t-74 -28.5z" />
    <glyph glyph-name="acircumflex.alt" horiz-adv-x="349" 
d="M141 -9q-52 0 -87.5 45.5t-35.5 133.5v15q0 88 35 133.5t87 45.5q57 0 82 -43v34h97v-355h-97v36q-28 -45 -81 -45zM171 75q53 0 53 96v13q0 96 -53 96t-53 -96v-13q0 -96 53 -96zM70 422l107 151h7l107 -151h-81l-30 40l-31 -40h-79z" />
    <glyph glyph-name="adieresis.alt" horiz-adv-x="349" 
d="M141 -9q-52 0 -87.5 45.5t-35.5 133.5v15q0 88 35 133.5t87 45.5q57 0 82 -43v34h97v-355h-97v36q-28 -45 -81 -45zM171 75q53 0 53 96v13q0 96 -53 96t-53 -96v-13q0 -96 53 -96zM252 422q-21 0 -37.5 16t-16.5 38t16.5 38t37.5 16t37.5 -16t16.5 -38t-16.5 -38
t-37.5 -16zM110 422q-21 0 -37.5 16t-16.5 38t16.5 38t37.5 16t37.5 -16t16.5 -38t-16.5 -38t-37.5 -16z" />
    <glyph glyph-name="agrave.alt" horiz-adv-x="349" 
d="M141 -9q-52 0 -87.5 45.5t-35.5 133.5v15q0 88 35 133.5t87 45.5q57 0 82 -43v34h97v-355h-97v36q-28 -45 -81 -45zM171 75q53 0 53 96v13q0 96 -53 96t-53 -96v-13q0 -96 53 -96zM141 419l-64 142h109l31 -142h-76z" />
    <glyph glyph-name="amacron.alt" horiz-adv-x="349" 
d="M141 -9q-52 0 -87.5 45.5t-35.5 133.5v15q0 88 35 133.5t87 45.5q57 0 82 -43v34h97v-355h-97v36q-28 -45 -81 -45zM171 75q53 0 53 96v13q0 96 -53 96t-53 -96v-13q0 -96 53 -96zM91 438v79h180v-79h-180z" />
    <glyph glyph-name="aogonek.alt" horiz-adv-x="349" 
d="M255 -213q-41 0 -63.5 22t-22.5 60q0 67 74 131h-21v36q-28 -45 -81 -45q-52 0 -87.5 45.5t-35.5 133.5v15q0 88 35 133.5t87 45.5q57 0 82 -43v34h97v-346q-65 -85 -65 -129q0 -20 18 -20q9 0 21 7l25 -61q-27 -19 -63 -19zM171 75q53 0 53 96v13q0 96 -53 96t-53 -96
v-13q0 -96 53 -96z" />
    <glyph glyph-name="aring.alt" horiz-adv-x="349" 
d="M141 -9q-52 0 -87.5 45.5t-35.5 133.5v15q0 88 35 133.5t87 45.5q57 0 82 -43v34h97v-355h-97v36q-28 -45 -81 -45zM171 75q53 0 53 96v13q0 96 -53 96t-53 -96v-13q0 -96 53 -96zM176 397q-34 0 -59.5 24t-25.5 56q0 33 25 57t60 24t60 -24t25 -57q0 -32 -25.5 -56
t-59.5 -24zM176 446q13 0 21.5 8t8.5 23t-8.5 23.5t-21.5 8.5t-21.5 -8.5t-8.5 -23.5t8.5 -23t21.5 -8z" />
    <glyph glyph-name="atilde.alt" horiz-adv-x="349" 
d="M141 -9q-52 0 -87.5 45.5t-35.5 133.5v15q0 88 35 133.5t87 45.5q57 0 82 -43v34h97v-355h-97v36q-28 -45 -81 -45zM171 75q53 0 53 96v13q0 96 -53 96t-53 -96v-13q0 -96 53 -96zM127 415l-65 5q11 102 76 102q18 0 43 -12t31 -12q19 0 21 26l65 -5q-5 -49 -25 -75.5
t-51 -26.5q-18 0 -43 12t-31 12q-19 0 -21 -26z" />
    <glyph glyph-name="gbreve.alt" horiz-adv-x="319" 
d="M156 94q-19 0 -34 4q-12 -7 -12 -19t12 -19t45 -11q72 -10 106.5 -41.5t34.5 -89.5v-4q0 -59 -40.5 -94.5t-108.5 -35.5q-66 0 -107.5 32t-41.5 84v4q0 63 59 87q-39 19 -39 67q0 44 43 65q-47 39 -47 103v6q0 64 39.5 98t90.5 34q28 0 52 -9h95v-68h-32q16 -27 16 -55
v-6q0 -63 -40 -97.5t-91 -34.5zM158 -139q25 0 40.5 14t15.5 36v3q0 23 -16 36t-45 13q-24 0 -39.5 -13.5t-15.5 -35.5v-3q0 -23 16.5 -36.5t43.5 -13.5zM157 168q17 0 28.5 15t11.5 44v4q0 29 -11.5 44t-28.5 15t-29 -14.5t-12 -44.5v-4q0 -30 12 -44.5t29 -14.5zM161 425
q-46 0 -74 28.5t-30 74.5l73 3q3 -33 31 -33t31 33l73 -3q-2 -46 -30 -74.5t-74 -28.5z" />
    <glyph glyph-name="gcircumflex.alt" horiz-adv-x="319" 
d="M156 94q-19 0 -34 4q-12 -7 -12 -19t12 -19t45 -11q72 -10 106.5 -41.5t34.5 -89.5v-4q0 -59 -40.5 -94.5t-108.5 -35.5q-66 0 -107.5 32t-41.5 84v4q0 63 59 87q-39 19 -39 67q0 44 43 65q-47 39 -47 103v6q0 64 39.5 98t90.5 34q28 0 52 -9h95v-68h-32q16 -27 16 -55
v-6q0 -63 -40 -97.5t-91 -34.5zM158 -139q25 0 40.5 14t15.5 36v3q0 23 -16 36t-45 13q-24 0 -39.5 -13.5t-15.5 -35.5v-3q0 -23 16.5 -36.5t43.5 -13.5zM157 168q17 0 28.5 15t11.5 44v4q0 29 -11.5 44t-28.5 15t-29 -14.5t-12 -44.5v-4q0 -30 12 -44.5t29 -14.5zM50 422
l107 151h7l107 -151h-81l-30 40l-31 -40h-79z" />
    <glyph glyph-name="gcommaaccent.alt" horiz-adv-x="319" 
d="M204 596l-21 -71q35 -13 35 -50q0 -23 -16.5 -39t-39.5 -16t-39.5 16t-16.5 39t16 55l37 66h45zM156 94q-19 0 -34 4q-12 -7 -12 -19t12 -19t45 -11q72 -10 106.5 -41.5t34.5 -89.5v-4q0 -59 -40.5 -94.5t-108.5 -35.5q-66 0 -107.5 32t-41.5 84v4q0 63 59 87
q-39 19 -39 67q0 44 43 65q-47 39 -47 103v6q0 64 39.5 98t90.5 34q28 0 52 -9h95v-68h-32q16 -27 16 -55v-6q0 -63 -40 -97.5t-91 -34.5zM158 -139q25 0 40.5 14t15.5 36v3q0 23 -16 36t-45 13q-24 0 -39.5 -13.5t-15.5 -35.5v-3q0 -23 16.5 -36.5t43.5 -13.5zM157 168
q17 0 28.5 15t11.5 44v4q0 29 -11.5 44t-28.5 15t-29 -14.5t-12 -44.5v-4q0 -30 12 -44.5t29 -14.5z" />
    <glyph glyph-name="gdotaccent.alt" horiz-adv-x="319" 
d="M156 94q-19 0 -34 4q-12 -7 -12 -19t12 -19t45 -11q72 -10 106.5 -41.5t34.5 -89.5v-4q0 -59 -40.5 -94.5t-108.5 -35.5q-66 0 -107.5 32t-41.5 84v4q0 63 59 87q-39 19 -39 67q0 44 43 65q-47 39 -47 103v6q0 64 39.5 98t90.5 34q28 0 52 -9h95v-68h-32q16 -27 16 -55
v-6q0 -63 -40 -97.5t-91 -34.5zM158 -139q25 0 40.5 14t15.5 36v3q0 23 -16 36t-45 13q-24 0 -39.5 -13.5t-15.5 -35.5v-3q0 -23 16.5 -36.5t43.5 -13.5zM157 168q17 0 28.5 15t11.5 44v4q0 29 -11.5 44t-28.5 15t-29 -14.5t-12 -44.5v-4q0 -30 12 -44.5t29 -14.5zM164 422
q-22 0 -39 16.5t-17 39.5q0 24 17 40t39 16q24 0 40 -16t16 -40t-16.5 -40t-39.5 -16z" />
    <glyph glyph-name="kcommaaccent.alt" horiz-adv-x="329" 
d="M29 0v701h97v-499l94 153h101l-105 -167l108 -188h-107l-91 159v-159h-97zM126 -222l21 73q-36 15 -36 52q0 25 17 41.5t41 16.5t41 -16.5t17 -41.5t-17 -57l-38 -68h-46z" />
    <glyph glyph-name="uacute.alt" horiz-adv-x="334" 
d="M167 -9q-67 0 -104 37.5t-37 105.5v221h97v-219q0 -58 44 -58t44 58v219h97v-221q0 -68 -37 -105.5t-104 -37.5zM123 419l31 142h109l-64 -142h-76z" />
    <glyph glyph-name="ubreve.alt" horiz-adv-x="334" 
d="M167 -9q-67 0 -104 37.5t-37 105.5v221h97v-219q0 -58 44 -58t44 58v219h97v-221q0 -68 -37 -105.5t-104 -37.5zM163 425q-46 0 -74 28.5t-30 74.5l73 3q3 -33 31 -33t31 33l73 -3q-2 -46 -30 -74.5t-74 -28.5z" />
    <glyph glyph-name="ucircumflex.alt" horiz-adv-x="334" 
d="M167 -9q-67 0 -104 37.5t-37 105.5v221h97v-219q0 -58 44 -58t44 58v219h97v-221q0 -68 -37 -105.5t-104 -37.5zM52 422l107 151h7l107 -151h-81l-30 40l-31 -40h-79z" />
    <glyph glyph-name="udieresis.alt" horiz-adv-x="334" 
d="M167 -9q-67 0 -104 37.5t-37 105.5v221h97v-219q0 -58 44 -58t44 58v219h97v-221q0 -68 -37 -105.5t-104 -37.5zM234 422q-21 0 -37.5 16t-16.5 38t16.5 38t37.5 16t37.5 -16t16.5 -38t-16.5 -38t-37.5 -16zM92 422q-21 0 -37.5 16t-16.5 38t16.5 38t37.5 16t37.5 -16
t16.5 -38t-16.5 -38t-37.5 -16z" />
    <glyph glyph-name="ugrave.alt" horiz-adv-x="334" 
d="M167 -9q-67 0 -104 37.5t-37 105.5v221h97v-219q0 -58 44 -58t44 58v219h97v-221q0 -68 -37 -105.5t-104 -37.5zM130 419l-64 142h109l31 -142h-76z" />
    <glyph glyph-name="uhungarumlaut.alt" horiz-adv-x="334" 
d="M167 -9q-67 0 -104 37.5t-37 105.5v221h97v-219q0 -58 44 -58t44 58v219h97v-221q0 -68 -37 -105.5t-104 -37.5zM188 419l28 142h93l-49 -142h-72zM65 419l28 142h93l-49 -142h-72z" />
    <glyph glyph-name="umacron.alt" horiz-adv-x="334" 
d="M167 -9q-67 0 -104 37.5t-37 105.5v221h97v-219q0 -58 44 -58t44 58v219h97v-221q0 -68 -37 -105.5t-104 -37.5zM73 438v79h180v-79h-180z" />
    <glyph glyph-name="uogonek.alt" horiz-adv-x="334" 
d="M167 -9q-67 0 -104 37.5t-37 105.5v221h97v-219q0 -58 44 -58t44 58v219h97v-221q0 -29 -7 -53t-13.5 -34t-21.5 -26t-18 -20q-57 -73 -57 -121q0 -20 18 -20q9 0 21 7l25 -61q-27 -19 -63 -19q-41 0 -63.5 22t-22.5 60q0 60 62 122h-1z" />
    <glyph glyph-name="uring.alt" horiz-adv-x="334" 
d="M167 -9q-67 0 -104 37.5t-37 105.5v221h97v-219q0 -58 44 -58t44 58v219h97v-221q0 -68 -37 -105.5t-104 -37.5zM163 397q-34 0 -59.5 24t-25.5 56q0 33 25 57t60 24t60 -24t25 -57q0 -32 -25.5 -56t-59.5 -24zM163 446q13 0 21.5 8t8.5 23t-8.5 23.5t-21.5 8.5
t-21.5 -8.5t-8.5 -23.5t8.5 -23t21.5 -8z" />
    <glyph glyph-name="f_b.alt" horiz-adv-x="545" 
d="M318 320q25 44 84 44q53 0 89 -46t36 -135v-11q0 -89 -36.5 -135t-89.5 -46q-55 0 -83 45v-36h-97v577q0 59 -38 59q-39 0 -39 -59v-222h50v-79h-50v-276h-97v276h-34v79h34v225q0 68 38 103t99 35q63 0 98.5 -35t35.5 -104v-259zM371 75q56 0 56 98v9q0 98 -56 98
q-26 0 -40.5 -25.5t-14.5 -72.5v-9q0 -47 14.5 -72.5t40.5 -25.5z" />
    <glyph glyph-name="f_f_b.alt" horiz-adv-x="719" 
d="M395 577q0 59 -38 59q-39 0 -39 -59v-222h50v-79h-50v-276h-97v276h-77v-276h-97v276h-34v79h34v234q0 65 30 97t83 32q42 0 62 -17l-30 -71q-8 5 -20 5q-28 0 -28 -45v-235h77v225q0 68 38 103t99 35q63 0 98.5 -35t35.5 -104v-259q25 44 84 44q53 0 89 -46t36 -135v-11
q0 -89 -36.5 -135t-89.5 -46q-55 0 -83 45v-36h-97v577zM545 75q56 0 56 98v9q0 98 -56 98q-26 0 -40.5 -25.5t-14.5 -72.5v-9q0 -47 14.5 -72.5t40.5 -25.5z" />
    <glyph glyph-name="f_f_h.alt" horiz-adv-x="703" 
d="M395 577q0 59 -38 59q-39 0 -39 -59v-222h50v-79h-50v-276h-97v276h-77v-276h-97v276h-34v79h34v234q0 65 30 97t83 32q42 0 62 -17l-30 -71q-8 5 -20 5q-28 0 -28 -45v-235h77v225q0 68 38 103t99 35q63 0 98.5 -35t35.5 -104v-264q29 49 87 49q44 0 71 -32t27 -91v-241
h-97v230q0 21 -11 32.5t-29 11.5q-48 0 -48 -51v-223h-97v577z" />
    <glyph glyph-name="f_f_k.alt" horiz-adv-x="695" 
d="M492 159v-159h-97v577q0 59 -38 59q-39 0 -39 -59v-222h50v-79h-50v-276h-97v276h-77v-276h-97v276h-34v79h34v234q0 65 30 97t83 32q42 0 62 -17l-30 -71q-8 5 -20 5q-28 0 -28 -45v-235h77v225q0 68 38 103t99 35q63 0 98.5 -35t35.5 -104v-377l94 153h101l-105 -167
l108 -188h-107z" />
    <glyph glyph-name="ffl.alt" horiz-adv-x="522" 
d="M13 276v79h34v234q0 65 30 97t83 32q42 0 62 -17l-30 -71q-8 5 -20 5q-28 0 -28 -45v-235h77v225q0 68 38 103t99 35q63 0 98.5 -35t35.5 -104v-579h-97v577q0 59 -38 59q-39 0 -39 -59v-222h50v-79h-50v-276h-97v276h-77v-276h-97v276h-34z" />
    <glyph glyph-name="f_h.alt" horiz-adv-x="529" 
d="M318 315q29 49 87 49q44 0 71 -32t27 -91v-241h-97v230q0 21 -11 32.5t-29 11.5q-48 0 -48 -51v-223h-97v577q0 59 -38 59q-39 0 -39 -59v-222h50v-79h-50v-276h-97v276h-34v79h34v225q0 68 38 103t99 35q63 0 98.5 -35t35.5 -104v-264z" />
    <glyph glyph-name="f_k.alt" horiz-adv-x="521" 
d="M318 586v-384l94 153h101l-105 -167l108 -188h-107l-91 159v-159h-97v577q0 59 -38 59q-39 0 -39 -59v-222h50v-79h-50v-276h-97v276h-34v79h34v225q0 68 38 103t99 35t96.5 -33.5t37.5 -98.5z" />
    <glyph glyph-name="fl.alt" horiz-adv-x="348" 
d="M13 276v79h34v225q0 68 38 103t99 35q63 0 98.5 -35t35.5 -104v-579h-97v577q0 59 -38 59q-39 0 -39 -59v-222h50v-79h-50v-276h-97v276h-34z" />
    <glyph glyph-name="space.up" horiz-adv-x="182" 
 />
    <glyph glyph-name="dollar.up" horiz-adv-x="408" 
d="M165 -116v108q-91 5 -151 67l62 74q53 -49 108 -49q43 0 68.5 23t25.5 61v8q0 30 -15.5 55t-53.5 57l-66 56q-50 43 -74.5 83t-24.5 95v7q0 57 32.5 98t88.5 55v91h97v-89q50 -8 95 -39l-50 -80q-44 31 -89 31q-31 0 -52 -18t-21 -47v-5q0 -31 15 -53.5t53 -53.5l68 -57
q52 -43 76.5 -85.5t24.5 -96.5v-10q0 -61 -31 -106t-89 -63v-117h-97z" />
    <glyph glyph-name="Euro.up" horiz-adv-x="491" 
d="M18 364v75h64q20 117 88.5 183t173.5 66q70 0 123 -35l-43 -84q-42 24 -79 24q-60 0 -100 -40t-55 -114h157v-75h-165v-49h165v-75h-157q14 -76 53.5 -115.5t102.5 -39.5q40 0 87 28l43 -82q-60 -40 -140 -40q-102 0 -168.5 65.5t-85.5 183.5h-64v75h57v49h-57z" />
    <glyph glyph-name="sterling.up" horiz-adv-x="491" 
d="M65 287v75h62q-28 81 -28 134v9q0 83 52 133t140 50q103 0 163 -70l-66 -70q-23 26 -41.5 37t-49.5 11q-39 0 -64.5 -25t-25.5 -70v-7q0 -47 24 -132h132v-75h-111q20 -78 20 -134q0 -15 -4 -41q47 -29 89 -29q38 0 75 28l52 -75q-50 -44 -121 -44q-69 0 -129 48
q-42 -49 -107 -49q-46 0 -77.5 25t-31.5 68q0 42 29.5 67t73.5 25q29 0 60 -12q-5 50 -28 123h-88zM130 57q32 0 46 34q-26 19 -46 19q-33 0 -33 -27q0 -26 33 -26z" />
    <glyph glyph-name="yen.up" horiz-adv-x="465" 
d="M39 196v75h140l-20 49h-120v75h88l-119 285h107l87 -218q12 -32 34 -98q7 31 33 98l85 218h103l-119 -285h88v-75h-119l-21 -49h140v-75h-143v-196h-101v196h-143z" />
    <glyph glyph-name="florin.up" horiz-adv-x="320" 
d="M27 277v78h60l16 200q5 67 42 100t90 33q50 0 86 -26l-33 -79q-20 14 -41 14q-39 0 -44 -46l-15 -196h78v-78h-84l-34 -436h-100l33 436h-54z" />
    <glyph glyph-name="zero.up" horiz-adv-x="533" 
d="M266 -9q-104 0 -171.5 91t-67.5 250v16q0 158 67.5 249t171.5 91q105 0 172.5 -91t67.5 -249v-16q0 -159 -67.5 -250t-172.5 -91zM266 84q61 0 96.5 66t35.5 184v12q0 118 -35.5 183.5t-96.5 65.5t-96 -65t-35 -184v-12q0 -119 35 -184.5t96 -65.5z" />
    <glyph glyph-name="one.up" horiz-adv-x="274" 
d="M103 0v588h-83v92h188v-680h-105z" />
    <glyph glyph-name="two.up" horiz-adv-x="430" 
d="M8 0v10l206 305q40 59 59 99.5t19 79.5v10q0 43 -22.5 67.5t-61.5 24.5q-57 0 -97 -69l-81 52q58 109 183 109q86 0 136 -48t50 -129v-11q0 -55 -25 -107t-83 -138l-110 -163h214v-92h-387z" />
    <glyph glyph-name="three.up" horiz-adv-x="434" 
d="M188 -8q-115 0 -178 67l63 70q46 -44 108 -44q57 0 88.5 33t31.5 95v8q0 63 -33 94t-87 31q-39 0 -69 -16l-8 10l145 248h-196v92h349v-10l-150 -248q69 -8 112 -59t43 -144v-10q0 -104 -59 -160.5t-160 -56.5z" />
    <glyph glyph-name="four.up" horiz-adv-x="484" 
d="M297 0v145h-279v10l367 533h10v-459h65v-84h-65v-145h-98zM259 365l-91 -136h129v124q0 43 3 79q-12 -23 -41 -67z" />
    <glyph glyph-name="five.up" horiz-adv-x="436" 
d="M186 -8q-113 0 -175 69l65 71q53 -47 110 -47q52 0 83 33t31 94v8q0 61 -30.5 93t-81.5 32q-73 0 -121 -59l-11 6v388h319v-92h-227v-178q25 20 79 20q76 0 128 -53.5t52 -152.5v-11q0 -104 -60 -162.5t-161 -58.5z" />
    <glyph glyph-name="six.up" horiz-adv-x="460" 
d="M230 -9q-90 0 -146.5 62.5t-56.5 160.5v8q0 96 65 204l151 254h109l-113 -190q-13 -21 -53 -77q32 24 73 24q81 0 128.5 -59.5t47.5 -152.5v-8q0 -100 -56.5 -163t-148.5 -63zM230 75q46 0 73.5 39.5t27.5 98.5v8q0 59 -26.5 97t-73.5 38t-74 -37.5t-27 -97.5v-8
q0 -59 27.5 -98.5t72.5 -39.5z" />
    <glyph glyph-name="seven.up" horiz-adv-x="425" 
d="M72 0l208 588h-256v92h390v-12l-236 -668h-106z" />
    <glyph glyph-name="nine.up" horiz-adv-x="460" 
d="M126 0l103 192q27 53 46 76q-30 -25 -71 -25q-78 0 -128.5 61t-50.5 154v9q0 100 56 161t148 61q91 0 147.5 -62.5t56.5 -160.5v-8q0 -99 -60 -208l-138 -250h-109zM229 324q47 0 74 37.5t27 97.5v8q0 60 -27.5 99t-73.5 39t-73 -39t-27 -99v-8q0 -60 26.5 -97.5
t73.5 -37.5z" />
    <glyph glyph-name="percent.up" horiz-adv-x="622" 
d="M105 0l325 680h87l-325 -680h-87zM159 400q-57 0 -99 39.5t-42 102.5v4q0 64 42 103t99 39q58 0 100 -39t42 -103v-4q0 -63 -42 -102.5t-100 -39.5zM159 478q25 0 39.5 17.5t14.5 48.5v2q0 30 -14.5 47.5t-39.5 17.5q-24 0 -38.5 -17.5t-14.5 -47.5v-2q0 -31 14.5 -48.5
t38.5 -17.5zM462 -9q-57 0 -99 39.5t-42 103.5v4q0 63 42 102.5t99 39.5q58 0 100 -39.5t42 -102.5v-4q0 -64 -42 -103.5t-100 -39.5zM462 69q25 0 39.5 17.5t14.5 48.5v3q0 30 -14.5 47t-39.5 17q-24 0 -38.5 -17t-14.5 -47v-3q0 -31 14.5 -48.5t38.5 -17.5z" />
    <glyph glyph-name="perthousand.up" horiz-adv-x="931" 
d="M105 0l325 680h87l-325 -680h-87zM159 400q-57 0 -99 39.5t-42 102.5v4q0 64 42 103t99 39q58 0 100 -39t42 -103v-4q0 -63 -42 -102.5t-100 -39.5zM159 478q25 0 39.5 17.5t14.5 48.5v2q0 30 -14.5 47.5t-39.5 17.5q-24 0 -38.5 -17.5t-14.5 -47.5v-2q0 -31 14.5 -48.5
t38.5 -17.5zM462 -9q-57 0 -99 39.5t-42 103.5v4q0 63 42 102.5t99 39.5q58 0 100 -39.5t42 -102.5v-4q0 -64 -42 -103.5t-100 -39.5zM462 69q25 0 39.5 17.5t14.5 48.5v3q0 30 -14.5 47t-39.5 17q-24 0 -38.5 -17t-14.5 -47v-3q0 -31 14.5 -48.5t38.5 -17.5zM771 -9
q-57 0 -99 39.5t-42 103.5v4q0 63 42 102.5t99 39.5q58 0 100 -39.5t42 -102.5v-4q0 -64 -42 -103.5t-100 -39.5zM771 69q25 0 39.5 17.5t14.5 48.5v3q0 30 -14.5 47t-39.5 17q-24 0 -38.5 -17t-14.5 -47v-3q0 -31 14.5 -48.5t38.5 -17.5z" />
    <glyph glyph-name="fraction.up" horiz-adv-x="334" 
d="M-41 0l325 680h91l-325 -680h-91z" />
    <glyph glyph-name="plus.up" horiz-adv-x="342" 
d="M30 280v91h94v107h94v-107h94v-91h-94v-107h-94v107h-94z" />
    <glyph glyph-name="minus.up" horiz-adv-x="339" 
d="M30 280v91h279v-91h-279z" />
    <glyph glyph-name="multiply.up" horiz-adv-x="337" 
d="M94 164l-65 65l75 81l-75 82l65 65l75 -82l74 82l65 -65l-76 -82l76 -81l-65 -65l-75 82z" />
    <glyph glyph-name="divide.up" horiz-adv-x="347" 
d="M30 280v91h287v-91h-287zM174 400q-24 0 -41.5 17t-17.5 42t17.5 41.5t41.5 16.5t41 -16.5t17 -41.5t-17 -42t-41 -17zM174 133q-24 0 -41.5 17t-17.5 42t17.5 41.5t41.5 16.5t41 -16.5t17 -41.5t-17 -42t-41 -17z" />
    <glyph glyph-name="equal.up" horiz-adv-x="339" 
d="M33 337v89h273v-89h-273zM33 195v89h273v-89h-273z" />
    <glyph glyph-name="less.up" horiz-adv-x="309" 
d="M277 151l-252 163v9l252 162v-95l-118 -72l118 -72v-95z" />
    <glyph glyph-name="greater.up" horiz-adv-x="309" 
d="M32 151v95l118 72l-118 72v95l252 -163v-9z" />
    <glyph glyph-name="degree.up" horiz-adv-x="280" 
d="M141 451q-50 0 -85 34.5t-35 83.5q0 50 35 84.5t85 34.5t84.5 -34.5t34.5 -84.5q0 -49 -35 -83.5t-84 -34.5zM141 513q22 0 36 15.5t14 40.5t-14 41t-36 16q-23 0 -37.5 -16t-14.5 -41t14.5 -40.5t37.5 -15.5z" />
    <glyph glyph-name="ordfeminine.up" horiz-adv-x="273" 
d="M99 352q-39 0 -63 26.5t-24 74.5v5q0 46 30.5 71t83.5 25h35v16q0 39 -41 39q-33 0 -59 -21l-41 64q44 36 113 36q115 0 115 -117v-211h-87v27q-22 -35 -62 -35zM127 421q34 0 34 42v30h-31q-32 0 -32 -34v-4q0 -34 29 -34z" />
    <glyph glyph-name="ordmasculine.up" horiz-adv-x="311" 
d="M156 352q-63 0 -101.5 43.5t-38.5 118.5v12q0 75 38.5 118.5t101.5 43.5q64 0 102 -43.5t38 -118.5v-12q0 -76 -38 -119t-102 -43zM156 427q49 0 49 88v11q0 87 -49 87q-50 0 -50 -87v-11q0 -88 50 -88z" />
    <glyph glyph-name="comma.up" horiz-adv-x="187" 
d="M37 -96l29 97q-38 18 -38 59q0 28 19.5 46.5t46.5 18.5t46 -18.5t19 -46.5q0 -23 -22 -64l-49 -92h-51z" />
    <glyph glyph-name="hyphen.up" horiz-adv-x="245" 
d="M32 219v92h181v-92h-181z" />
    <glyph glyph-name="endash.up" horiz-adv-x="348" 
d="M32 219v92h284v-92h-284z" />
    <glyph glyph-name="emdash.up" horiz-adv-x="558" 
d="M32 219v92h494v-92h-494z" />
    <glyph glyph-name="parenleft.up" horiz-adv-x="263" 
d="M184 -94q-151 178 -151 418v14q0 240 151 418l63 -45q-55 -80 -82.5 -168.5t-27.5 -206.5v-10q0 -118 27.5 -206.5t82.5 -168.5z" />
    <glyph glyph-name="parenright.up" horiz-adv-x="263" 
d="M79 -94l-63 45q55 80 82.5 168.5t27.5 206.5v10q0 118 -27.5 206.5t-82.5 168.5l63 45q151 -178 151 -418v-14q0 -240 -151 -418z" />
    <glyph glyph-name="at.up" horiz-adv-x="598" 
d="M301 17q-123 0 -200.5 80.5t-77.5 228.5v12q0 147 81 228.5t201 81.5q118 0 194 -71.5t76 -207.5v-12q0 -194 -121 -194q-70 0 -92 59q-29 -61 -89 -61q-46 0 -79 41t-33 120v13q0 79 31 120.5t75 41.5t67 -39v30h96v-216q0 -39 26 -39q20 0 32.5 32t12.5 93v10
q0 102 -54 157t-141 55q-91 0 -149.5 -62t-58.5 -179v-10q0 -120 53.5 -182t145.5 -62q53 0 107 26l31 -62q-67 -32 -134 -32zM299 242q37 0 37 81v12q0 80 -37 80q-40 0 -40 -80v-12q0 -81 40 -81z" />
    <glyph glyph-name="section.up" horiz-adv-x="447" 
d="M203 -155q-107 0 -177 68l63 70q49 -49 108 -49q37 0 58 14t21 41v5q0 17 -11.5 33.5t-23 26t-42.5 32.5l-75 56q-33 25 -50.5 42t-32 47t-14.5 66v6q0 42 24 74t67 46q-51 49 -51 111v6q0 70 46.5 109t122.5 39q90 0 152 -55l-55 -71q-46 38 -92 38q-71 0 -71 -56v-3
q0 -25 12.5 -40.5t45.5 -40.5l88 -66q54 -40 79.5 -75.5t25.5 -82.5v-8q0 -90 -93 -122q52 -52 52 -107v-7q0 -64 -47.5 -105.5t-129.5 -41.5zM258 314l-77 57q-56 -11 -56 -60v-5q0 -25 14 -43t50 -45l75 -58q26 5 42.5 21.5t16.5 39.5v5q0 40 -65 88z" />
    <glyph glyph-name="numbersign.up" horiz-adv-x="452" 
d="M64 489v81h75l21 110h75l-21 -110h71l21 110h75l-21 -110h59v-81h-74l-18 -100h61v-81h-76l-20 -109h-75l20 109h-71l-20 -109h-75l20 109h-58v81h73l18 100h-60zM199 489l-18 -100h71l18 100h-71z" />
    <glyph glyph-name="copyright.up" horiz-adv-x="506" 
d="M252 110q-93 0 -158.5 66t-65.5 163q0 98 65.5 163t158.5 65q94 0 160 -65t66 -163q0 -97 -66.5 -163t-159.5 -66zM252 151q78 0 131 53.5t53 134.5q0 82 -52.5 135.5t-131.5 53.5q-77 0 -129.5 -53.5t-52.5 -135.5q0 -81 52.5 -134.5t129.5 -53.5zM254 198
q-57 0 -97 40.5t-40 100.5t40 101t97 41q69 0 105 -52l-58 -47q-16 25 -46 25q-26 0 -42.5 -19.5t-16.5 -48.5t16.5 -48t43.5 -19q30 0 49 26l59 -43q-36 -57 -110 -57z" />
    <glyph glyph-name="eight.up" horiz-adv-x="470" 
d="M235 -9q-94 0 -152.5 58.5t-58.5 140.5v10q0 118 104 168q-77 46 -77 138v10q0 74 52 123t132 49t132 -49.5t52 -122.5v-10q0 -91 -78 -137q105 -50 105 -169v-10q0 -83 -58.5 -141t-152.5 -58zM235 82q45 0 74.5 33t29.5 84v8q0 52 -30 85.5t-74 33.5q-45 0 -75 -33
t-30 -86v-8q0 -53 29.5 -85t75.5 -32zM235 406q37 0 60 26.5t23 67.5v6q0 43 -23 69.5t-60 26.5t-60 -26.5t-23 -69.5v-6q0 -41 23 -67.5t60 -26.5z" />
    </font>
</defs>
</svg>
