<?xml version="1.0" encoding="utf-8"?><svg xmlns:xlink="http://www.w3.org/1999/xlink" id="Scene_1" image-rendering="auto" baseProfile="basic" version="1.1" x="0px" y="0px" width="34" height="34" viewBox="0 0 34 34" xmlns="http://www.w3.org/2000/svg"><g id="Scene 1_0.0"><path fill="#EF4136" d="M22.5,7.95Q21.7,8.5 20.35,10.65 18.85,12.9 18.5,14.3 18.2,15.55 18.3,17 18.4,17.8 18.6,18.95L18.7,20Q18.45,19.65 18.2,19.35 17.1,17.85 16.2,16.55 15.85,16 15.55,15.5 15.5,14.85 15.4,13.25 15.3,9.75 13.8,8.1 13.15,7.4 11.65,6.45 9.9,5.45 9.05,5 7.4,4 4.45,1.85 5.05,2.8 6.25,6.45 7.55,10.25 8.4,11.85 9.55,13.9 11.05,14.8 11.4,14.95 13.45,15.7 14.05,15.9 14.6,16.15 14.9,16.65 15.25,17.25 16.1,18.55 17.25,20.05 17.45,20.35 17.65,20.55 17.3,20.45 16.9,20.25 15.25,19.35 12.85,19.1 11.45,18.95 9.8,19.2 7.95,19.45 7.05,19.55 5.4,19.8 4.1,19.7 6.35,21 8.85,22.1 10,22.65 11.6,23.35 12.85,23.85 14.2,23.7 15.55,23.55 16.55,22.9 16.9,22.7 17.75,21.9 18,21.65 18.3,21.4 20.65,24.45 23.2,27.05 22.65,26.9 21.95,26.65 19.85,25.85 18.75,25.75 17.15,25.7 15.5,26.3 14.8,26.65 12.8,27.7 11.05,28.7 9.25,28.95 10,29.05 13.75,30.8 14.85,31.25 15.65,31.35 16.85,31.45 18.5,31.1 20.1,30.8 21.25,30.05 22.05,29.5 23.05,28.5 23.55,28 23.9,27.7L23.95,27.75Q26.35,30.1 28.95,32 29.15,32.15 29.4,32.1 29.65,32.05 29.8,31.85 29.95,31.65 29.9,31.45 29.85,31.2 29.65,31.05 27.15,29.2 24.85,26.95 25.3,26.6 25.75,26.3 27.35,25.15 27.9,23.95 28.7,22.3 29.05,21.15 29.45,19.75 29.4,18.1 29.4,15.75 29.65,13.45 29.4,13.9 27.55,15.75 25.85,17.5 24.95,19.2 24,21.15 23.85,22.75 23.8,23.55 24,24.95 24.1,25.6 24.1,26.3 21.55,23.7 19.2,20.7 19.5,20.35 19.9,20.1 21.25,19.1 21.45,18.9 22.6,17.8 22.95,16.35 23.3,14.85 23.2,13.5 23.15,13.35 22.65,11.05 22.3,9.25 22.5,7.95"/></g><defs/></svg>